<svg width="146" height="148" viewBox="0 0 146 148" fill="none" xmlns="http://www.w3.org/2000/svg">
<rect width="146" height="148" fill="white"/>
<path d="M22.577 93.4947L19.7194 65.5164C19.6714 65.0567 19.4844 64.6237 19.18 64.2709L11.9265 55.9265C11.1146 54.9911 9.70452 54.8949 8.7698 55.702C7.83507 56.5145 7.73893 57.9258 8.5508 58.8612L15.3396 66.6763L18.1972 94.6387C18.2399 95.0823 18.4215 95.5046 18.7099 95.8521L27.4964 106.292C27.9397 106.816 28.57 107.088 29.2056 107.088C29.713 107.088 30.2257 106.917 30.6424 106.564C31.5878 105.768 31.7053 104.357 30.9094 103.411L22.577 93.4947Z" fill="#A25A9F"/>
<path d="M11.8775 51.6503C12.1766 51.7892 12.4971 51.8587 12.8069 51.8587C13.6401 51.8587 14.4467 51.383 14.8419 50.5918C14.858 50.5544 16.8396 46.7003 25.0598 43.7977C27.442 42.9585 30.0112 42.3705 32.9275 41.9909L89.198 34.7638C90.4212 34.6088 91.2865 33.4862 91.1262 32.2621C90.9713 31.0327 89.8603 30.1774 88.6265 30.327L32.356 37.5488C29.1245 37.9658 26.2509 38.6233 23.5696 39.5694C13.4959 43.1242 11.0176 48.1703 10.7665 48.737C10.2751 49.8542 10.7719 51.1317 11.8775 51.6503Z" fill="#A25A9F"/>
<path d="M49.3962 73.7005C49.7914 73.6257 50.1867 73.5401 50.5926 73.4439L106.836 65.7304C108.06 65.5647 108.914 64.4368 108.749 63.2126C108.578 61.9885 107.44 61.1279 106.227 61.2989L49.8769 69.0285L49.6632 69.066C49.2894 69.1568 48.9208 69.237 48.5576 69.3012C41.9291 70.5627 34.8893 68.4192 29.7242 63.5547L19.5758 53.9916C18.6784 53.1471 17.263 53.1845 16.4137 54.0879C15.5698 54.9912 15.6125 56.4025 16.5099 57.2524L26.6583 66.8155C31.6791 71.5463 38.2062 74.1388 44.776 74.1388C46.3196 74.1335 47.8686 73.9892 49.3962 73.7005Z" fill="#A25A9F"/>
<path d="M131.6 55.4614C131.809 53.1094 130.869 50.7948 129.085 49.2767C128.716 48.9559 119.94 41.4134 116.874 38.8797C105.984 29.8832 96.9568 30.4124 96.5829 30.4445C95.3544 30.5353 94.441 31.5884 94.5158 32.8179C94.5959 34.0473 95.6428 34.9828 96.882 34.908C96.9675 34.9026 104.627 34.5658 114.028 42.3329C117.056 44.8399 126.077 52.5962 126.179 52.6818C126.863 53.2644 127.231 54.1571 127.146 55.0658C127.103 55.5576 126.884 56.4771 125.923 57.033C124.299 57.9791 121.003 59.1765 114.514 59.5293C113.28 59.5935 112.334 60.6519 112.404 61.8814C112.468 63.0734 113.456 63.9982 114.636 63.9982L114.759 63.9928C120.683 63.6721 125.202 62.6351 128.177 60.9031C130.142 59.7539 131.392 57.7707 131.6 55.4614Z" fill="#A25A9F"/>
<path d="M135.561 58.7384C134.349 58.8399 133.446 59.9251 133.521 61.1385C133.526 61.1973 133.601 62.6352 132.292 64.0732C131.251 65.2171 129.152 66.5695 124.927 67.1361L124.857 67.1468C123.906 67.2698 122.854 67.3606 121.674 67.3981C120.44 67.4355 119.468 68.4672 119.505 69.702C119.543 70.9154 120.536 71.8723 121.743 71.8723H121.813C122.154 71.8616 122.464 71.8295 122.79 71.8135L121.321 95.0022C118.544 101.267 108.983 103.956 108.011 104.218L59.7415 111.734L59.5118 111.782C54.9824 112.979 42.1206 115.005 37.0944 110.098C36.2131 109.237 34.7977 109.253 33.9324 110.135C33.0725 111.023 33.0885 112.439 33.9698 113.3C37.4844 116.732 43.0393 117.699 48.1723 117.699C54.1705 117.699 59.5973 116.379 60.5427 116.138L108.812 108.623L108.999 108.585C109.533 108.457 122.042 105.298 125.61 96.3493C125.696 96.1301 125.749 95.9003 125.765 95.6651L127.314 71.2629C131.053 70.5038 133.895 69.0659 135.753 66.9277C138.258 64.0464 138.013 61.0423 137.981 60.7108C137.842 59.4867 136.742 58.6261 135.561 58.7384Z" fill="#A25A9F"/>
<path d="M116.518 71.76C116.342 70.5359 115.22 69.6913 113.986 69.8623C112.368 70.0922 74.1347 75.5981 61.2569 78.8107C54.2224 80.5694 48.5499 80.7992 44.0633 80.3021L43.5665 80.238H43.5291L43.5024 80.2433C34.4596 79.0887 30.475 74.9406 30.2186 74.6573C29.3907 73.7432 27.986 73.6683 27.0726 74.4862C26.1539 75.3094 26.0685 76.726 26.891 77.6454C27.1634 77.9554 31.5646 82.7129 41.2644 84.4074L40.976 102.507C40.9546 103.742 41.9428 104.763 43.1766 104.779H43.214C44.4318 104.779 45.4253 103.801 45.4467 102.577L45.7297 84.926C46.579 84.9741 47.455 85.0008 48.3683 85.0008C52.3903 85.0008 57.0372 84.4769 62.3411 83.1513C75 79.9921 114.226 74.3472 114.622 74.2884C115.839 74.112 116.694 72.9788 116.518 71.76Z" fill="#A25A9F"/>
<path d="M87.2946 40.1949L39.2283 46.6255C38.0052 46.7912 37.1452 47.9191 37.3055 49.1379C37.471 50.3674 38.6087 51.2173 39.8159 51.0623L87.8447 44.637C92.9136 44.0543 98.0786 45.2464 102.373 47.9993L108.024 51.6236C108.398 51.8588 108.82 51.9764 109.231 51.9764C109.968 51.9764 110.689 51.6129 111.117 50.9447C111.784 49.9023 111.48 48.5232 110.438 47.855L104.787 44.2307C99.6223 40.9219 93.4264 39.4893 87.2946 40.1949Z" fill="#A25A9F"/>
<path d="M66.3639 105.201C67.2719 106.281 68.7889 106.901 70.5461 106.901H70.5675C72.7895 106.688 74.9687 106.345 77.0251 105.875C80.1605 105.576 83.0661 105.715 85.6299 106.271L86.1908 106.174C89.5131 104.132 92.9208 103.983 95.9279 103.849C98.5719 103.731 101.072 103.619 103.139 102.277C105.553 100.701 105.553 98.2096 105.318 95.3658C105.206 93.404 105.099 91.5598 103.165 91.0145H103.144H103.064C101.44 83.5522 92.3065 80.0295 84.4709 80.516C76.8168 80.981 68.3295 85.3162 67.4215 96.0767C65.739 97.9156 65.066 100.145 65.5841 102.208C65.3865 103.331 65.6642 104.362 66.3639 105.201ZM92.6911 88.2456C90.9712 88.7694 89.1178 89.1383 87.1843 89.336C85.8115 89.4162 84.3961 89.3253 82.9646 89.0688C83.6911 88.8977 84.4121 88.8389 85.1118 88.7801C85.9451 88.7106 86.7302 88.6411 87.5528 88.3952C88.4181 87.9515 89.3368 87.6682 90.2555 87.556C91.1154 87.6094 91.9487 87.85 92.6911 88.2456ZM93.8075 87.8393L93.6579 87.7164C92.2424 86.7702 90.5119 86.4281 88.7813 86.7649C88.0175 86.984 87.2323 87.0214 86.3991 87.0642C85.7154 87.1016 85.005 87.139 84.2893 87.278C83.1409 87.5774 82.0192 88.005 80.9617 88.5663L80.8548 88.6732C78.5848 88.1493 76.1225 88.1654 73.7028 88.716C77.602 85.0971 82.9433 83.0711 88.2098 83.0711C89.684 83.0711 91.1475 83.2315 92.579 83.5576C95.1374 84.1402 97.3274 85.236 99.0045 86.7167C97.3113 86.8985 95.5594 87.278 93.8075 87.8393ZM72.9925 90.0523C76.5444 88.8015 79.3272 89.3414 82.0085 89.8706C83.7605 90.2127 85.4109 90.5388 87.2003 90.3624C89.5451 90.1379 91.6549 89.4857 93.6953 88.8603C95.6075 88.2723 97.4182 87.7164 99.1861 87.5827L99.528 87.3903L99.5814 87.2566C100.602 88.2937 101.392 89.4964 101.899 90.8328C100.19 90.9878 98.3956 91.2604 96.5849 91.6346L95.9867 91.7148C93.1825 92.0783 89.3635 92.5754 86.1801 91.6186L86.0572 91.5758L85.5391 91.7094L85.5231 91.7308C82.8044 92.6128 79.8079 93.2383 76.6352 93.5804C74.5147 93.6712 72.3141 93.992 70.0761 94.5372L69.6755 94.7029C70.2898 93.0458 71.2138 91.4903 72.4156 90.0791L72.9925 90.0523ZM75.5402 94.7938C76.2132 94.735 76.8542 94.6762 77.3883 94.6014C80.4436 94.2272 83.3225 93.5857 85.9451 92.6984C89.2246 93.3238 92.3867 93.3719 95.3244 92.8427C96.9642 92.6984 98.4918 92.4632 99.9713 92.2333L100.548 92.1424C101.104 91.9607 101.67 91.8858 102.225 91.9072C103.518 92.3402 104.431 94.4891 104.597 95.8896C104.859 97.2901 104.714 97.4719 103.935 98.4822L103.55 98.9847C103.71 98.1294 103.657 97.1725 103.603 96.2317C103.587 96.0126 103.577 95.7934 103.566 95.5796C103.475 93.3612 102.759 92.6396 100.703 92.7144C99.3998 92.7678 97.979 92.9977 96.4781 93.2436C93.2359 93.7781 89.5611 94.3768 85.9184 93.2971L85.3842 93.4735C82.97 94.5158 80.2673 94.8152 77.399 95.1306C75.4388 95.3444 73.4144 95.5689 71.3153 96.0393C67.7473 96.8411 67.1224 98.8457 67.288 101.615C67.336 102.416 67.3894 103.047 67.507 103.544C67.4055 103.277 67.3253 102.978 67.2719 102.646C66.412 100.433 67.336 97.8461 69.6061 96.0607C71.0696 95.1894 73.5479 94.9702 75.5402 94.7938ZM102.092 94.9114C102.364 95.3177 102.551 95.7988 102.631 96.328C102.872 97.6109 102.717 98.6105 102.156 99.3856L102.161 99.3695V99.2413L102.092 94.9114ZM88.3059 100.465L87.8359 100.497V96.4135L88.1777 96.3868C88.1831 97.7499 88.2258 99.1236 88.3059 100.465ZM77.9331 100.326L77.8263 100.337C77.8423 99.8774 77.6501 99.4497 77.2922 99.145C77.5379 99.2947 77.7569 99.4871 77.8851 99.7223C77.9972 99.9308 78.0079 100.129 77.9331 100.326ZM76.913 98.9686L76.8168 99.0114L76.475 99.0435L76.4376 99.0542C75.8714 99.2894 75.4334 99.7223 75.2465 100.225L75.2198 100.305L75.3373 99.8132C75.5296 99.4016 75.9622 99.0969 76.6352 98.8991L76.913 98.9686ZM79.6103 99.006C79.8453 98.5463 80.3207 98.3058 80.9617 98.3058L81.4263 98.3432V98.5517C80.6305 98.6693 80.0323 99.0862 79.8079 99.6956C79.637 100.15 79.7171 100.631 80.0162 100.946C80.2032 101.144 80.6358 101.438 81.4263 101.246V101.262C80.8976 101.524 80.3901 101.46 79.9895 101.069C79.4554 100.551 79.2845 99.6315 79.6103 99.006ZM81.8643 99.6956L82.0406 99.6582V100.011L81.8643 100.027V99.6956ZM85.5445 98.1615L85.0477 97.969L84.7379 98.0492C85.0103 97.8782 85.2293 97.8407 85.4056 97.9156C85.9985 98.1935 85.9985 99.9201 85.9985 100.685L85.8489 100.701L85.8756 100.193C85.9184 99.4551 85.9718 98.6907 85.5445 98.1615ZM83.5682 100.979L83.2638 101.021V97.0068L83.4721 96.9908V97.9583L83.6323 98.3165L84.0649 98.4501H84.081C83.44 99.0649 83.5041 100.129 83.5682 100.979ZM92.0181 99.9148L91.9059 99.8293L91.7404 99.7277C91.9647 99.4925 92.1196 99.2092 92.189 98.8991L92.1944 98.8671L92.189 98.835C92.173 98.7602 92.0876 98.418 91.8739 98.3111C91.9968 98.1347 92.0769 97.9637 92.0341 97.7605L92.0929 97.7445H92.0288L91.938 97.536L91.7991 97.4024L91.8525 97.4345C92.3333 97.7338 92.3333 97.7338 92.3065 98.0439L92.2745 98.4662C92.2371 98.974 92.2318 99.4871 92.2692 99.9843L92.0822 100.006V99.9201H92.0181V99.9148ZM90.6187 99.0595L90.3944 99.4497L90.2608 99.2894C90.2662 99.2894 90.2822 99.1878 90.6187 99.0595ZM91.1582 97.2634L90.8804 97.2795C91.1475 97.226 91.4252 97.242 91.6656 97.3383L91.1582 97.2634ZM96.2911 96.9908C96.1416 96.8358 95.9493 96.7556 95.7143 96.7556H95.6609L95.5594 96.7609L95.5434 96.8197L95.4152 96.8518C95.8051 96.499 96.1149 96.3707 96.3499 96.4669C96.9855 96.7342 97.0389 98.6319 97.0496 99.4925L96.5796 99.5566L96.5849 99.5246C96.6597 98.6158 96.7665 97.4826 96.2911 96.9908ZM94.5445 99.5887V99.7223L93.9891 99.7972C93.9891 98.8243 93.957 97.8514 93.8983 96.8999L94.5819 96.8411L94.865 97.0122L95.0573 97.0549C94.4644 97.5414 94.5072 98.696 94.5445 99.5887ZM100.922 98.8884L100.74 98.7388L100.521 98.7441L100.286 98.7976C99.9446 99.0061 99.5654 99.0595 99.2182 98.9366C98.8763 98.819 98.5986 98.5517 98.449 98.1668C98.3742 97.9637 98.3315 97.7338 98.3369 97.5093C98.449 96.6808 99.09 96.0446 99.795 96.0446L99.8965 96.05L100.318 96.1729L100.698 96.1355L100.874 95.7613V94.7938L101.51 94.751L101.568 98.8564C101.365 98.8884 101.146 98.8991 100.922 98.8884ZM89.5237 98.4982L89.497 98.5196L89.3742 98.6479V98.3539L89.5237 98.4982ZM70.8079 99.8934C70.9147 100.059 71.1283 100.145 71.3634 100.118L72.4637 100C72.7895 100.032 73.1367 99.8239 73.2168 99.5299L73.2328 99.3909V98.1027L73.3503 98.092C73.3557 98.7495 73.4037 99.407 73.4465 100.043C73.4892 100.685 73.5373 101.347 73.5426 102.005L73.1794 102.064V100.717L73.0726 100.358L72.6292 100.177L72.5171 100.187L71.342 100.316C71.0269 100.348 70.5889 100.401 70.6316 100.925C70.669 101.379 70.669 101.845 70.6423 102.31L70.4393 102.336V98.3806L70.6049 98.3646V99.4711L70.8079 99.8934ZM100.116 94.3127L100.083 95.1466C99.1701 94.9809 98.2194 95.5315 97.744 96.4669C97.6425 96.2317 97.4983 96.0179 97.3113 95.8415C96.7185 95.339 95.8585 95.339 95.1855 95.8201L94.9398 95.756L93.4336 95.8736C93.2039 95.8896 93.0116 96.0928 93.0009 96.3333L92.8353 96.1836C91.8579 95.7613 90.6507 95.9164 89.6893 96.5792L89.3475 96.8892C89.3315 96.4937 89.3154 96.1034 89.278 95.7186L89.1338 95.4192L88.8027 95.3123L87.3338 95.4085C87.0507 95.4406 86.8371 95.6865 86.8477 95.9698V97.2688L86.6875 97.0924C86.132 96.6701 85.3415 96.6166 84.6525 96.9373V96.2638L84.3373 95.8469L84.316 95.8415L82.7029 95.9538C82.3931 95.9858 82.1528 96.2371 82.1581 96.5204L82.2382 96.7716V97.4238L82.2115 97.4291C80.9563 97.0015 79.4234 97.5948 78.7557 98.7495C78.291 98.1134 77.4364 97.7552 76.491 97.8247L75.9996 98.0599C75.5029 98.263 75.0435 98.5517 74.6589 98.9045V97.4986L74.4667 97.1619L74.05 97.0229L73.9432 97.0282L73.8791 97.0443L73.377 97.0817L73.8631 96.9213C75.6738 96.5738 77.4685 96.3173 79.2097 96.1622C81.5545 95.7453 83.7551 95.0771 85.7635 94.1898L85.8009 94.1951C88.6958 94.735 91.516 94.7884 94.176 94.3608C94.9131 94.318 95.7303 94.1684 96.5903 94.008C98.1926 93.7087 99.8484 93.3986 101.056 93.8156L100.479 93.8476C100.265 93.8744 100.105 94.0828 100.116 94.3127ZM84.6792 99.8453V101.251L84.6525 101.289C84.6204 100.513 84.6418 100.086 84.6792 99.8453ZM68.9972 99.8079V102.203C68.4844 101.518 68.4844 100.62 68.9972 99.8079ZM94.8811 101.572C92.0876 101.722 89.0857 102.336 85.9718 103.4L85.9397 103.411C83.9368 102.411 81.2982 102.812 78.5047 103.234C76.1224 103.592 73.6655 103.967 71.4595 103.486L71.8654 103.266L72.2981 103.432L72.4423 103.411C72.923 103.315 73.4091 103.245 73.8951 103.208C74.1034 103.176 74.2904 103.053 74.3919 102.882L74.5948 102.582C75.1931 103.063 76.0904 103.208 76.9717 102.94C77.7248 102.71 78.3391 102.192 78.6222 101.567C78.8518 101.93 79.199 102.219 79.6317 102.384C80.3207 102.662 81.1379 102.63 81.8804 102.299L82.2596 102.101L82.6281 102.192L84.0436 101.989L84.332 101.946L84.5937 101.732L84.7486 101.941L85.1332 102.032L86.8691 101.78L87.1575 101.636L87.1896 101.657L87.5528 101.748L88.8401 101.561L89.246 101.235L89.4116 100.946C89.9831 101.347 90.7789 101.369 91.468 100.984C91.7884 101.219 92.36 101.08 92.7926 100.979L93.0116 100.93L93.3214 100.754L93.6205 100.893H93.6365L95.0573 100.685C95.287 100.679 95.4846 100.481 95.5113 100.241V100.193C95.5113 98.9847 95.6555 98.1615 95.7677 98.0759C95.8585 98.2309 95.7784 99.2894 95.7517 99.6849L95.725 100.097L95.8425 100.412L96.1309 100.508L96.179 100.503C96.6116 100.401 97.0389 100.342 97.4502 100.316L97.792 100.08L97.9309 99.733V99.2252C98.1659 99.5353 98.4757 99.7651 98.8336 99.8827C99.325 100.043 99.8698 99.9896 100.361 99.7277L100.623 99.7865C101.082 99.8186 101.542 99.7491 101.996 99.578H102.006C100.772 101.005 98.2354 101.246 96.1736 101.438C95.7036 101.476 95.2603 101.524 94.8811 101.572ZM70.6423 105.132C72.4904 105.111 74.5307 104.785 76.5124 104.464C80.0643 103.892 83.4186 103.352 85.4911 104.528L85.5445 104.544L85.7742 104.512L86.1641 104.432C89.2887 103.266 92.3012 102.577 95.1267 102.374C95.8745 102.245 96.7078 102.192 97.509 102.144C99.0259 102.048 100.596 101.951 101.798 101.342L102.076 101.192C101.462 102.069 101.269 102.09 100.073 102.224L99.7256 102.267C98.2461 102.438 96.4033 102.652 94.5445 102.908C91.8419 102.983 88.8668 103.769 85.9397 105.18C83.6483 104.683 81.1166 104.507 78.3978 104.646C77.5913 104.715 76.6726 104.87 75.7058 105.03C73.1367 105.463 70.2364 105.95 68.5912 104.881C69.0559 105.073 69.7129 105.143 70.6423 105.132ZM88.6638 82.125C83.0234 81.9004 75.5776 83.9157 70.7705 90.063C74.3972 83.7019 81.3783 81.3926 87.1041 81.3926H87.4193C92.8781 81.4782 97.6906 83.5522 100.286 86.7702C97.6745 84.0386 93.4656 82.3174 88.6638 82.125Z" fill="#A25A9F"/>
<path d="M99.7143 96.2266C99.1161 96.2266 98.63 96.8359 98.63 97.5843C98.63 98.3327 99.1161 98.9421 99.7143 98.9421C100.313 98.9421 100.799 98.3327 100.799 97.5843C100.804 96.8359 100.313 96.2266 99.7143 96.2266Z" fill="#A25A9F"/>
</svg>
