<svg width="146" height="148" viewBox="0 0 146 148" fill="none" xmlns="http://www.w3.org/2000/svg">
<rect width="146" height="148" fill="white"/>
<path d="M51.2201 25.6017H85.8282V20.3364H51.2937C51.2661 20.6123 51.2293 20.8285 51.2247 21.04C51.2201 22.5391 51.2201 24.0336 51.2201 25.6017ZM104.703 84.7066C103.296 85.5205 102.012 86.3666 100.641 87.0426C96.6113 89.0154 92.287 90.073 87.9029 90.8732C87.0242 91.0295 86.8264 91.356 86.8356 92.17C86.877 95.3935 86.9092 98.6171 86.8356 101.841C86.739 106.301 88.0823 110.307 90.4837 114.004C93.4601 118.584 97.6325 121.95 101.911 125.192C104.156 126.889 105.136 126.962 107.316 125.169C110.518 122.529 113.747 119.862 116.563 116.832C120.57 112.514 122.598 107.272 122.456 101.275C122.382 98.24 122.414 95.205 122.465 92.1654C122.479 91.3238 122.23 91.0387 121.384 90.8824C115.473 89.7649 109.685 88.3026 104.703 84.7066ZM88.0087 16C89.6464 17.0761 90.6447 18.5108 90.4469 20.7319H91.6889C94.877 20.7319 98.065 20.7181 101.258 20.7365C107.224 20.7733 112.036 25.5419 112.091 31.52C112.133 36.2795 112.11 41.0436 112.101 45.8076C112.096 47.4309 111.194 48.4242 109.796 48.3874C108.452 48.3506 107.601 47.3665 107.597 45.803C107.588 41.2689 107.601 36.7302 107.592 32.1914C107.588 27.9976 104.906 25.2798 100.719 25.2614C97.3519 25.243 93.9799 25.2568 90.5481 25.2568C90.5159 25.5925 90.4837 25.8408 90.4653 26.0892C90.3181 28.554 88.6665 30.2094 86.1824 30.214C74.4424 30.237 62.7024 30.237 50.9625 30.2186C48.4185 30.214 46.7854 28.5816 46.6244 26.0294C46.6106 25.8087 46.583 25.5925 46.5508 25.2568C44.9959 25.2568 43.464 25.243 41.9321 25.2614C39.6503 25.2844 37.341 25.1557 35.0822 25.4086C31.7884 25.7719 29.6032 28.3884 29.502 31.704C29.4928 32.0029 29.4974 32.3018 29.4974 32.6053V113.709C29.4974 118.52 32.046 121.076 36.8303 121.076C54.1229 121.081 71.4154 121.076 88.708 121.076H90.1938C89.7936 120.593 89.5268 120.267 89.2554 119.945C85.865 115.967 83.4314 111.521 82.6263 106.297C82.4791 105.34 81.9087 105.428 81.2647 105.428C69.6351 105.432 58.0101 105.432 46.3805 105.432C44.8808 105.432 43.3812 105.451 41.8815 105.423C40.1333 105.395 39.1627 104.54 39.1811 103.105C39.1949 101.703 40.2345 100.847 41.9505 100.847C54.8911 100.843 67.8318 100.847 80.7724 100.847H82.1663V92.0136H80.8184C68.4022 92.0136 55.986 92.0182 43.5698 92.0136C41.6882 92.009 40.6532 91.1445 40.6946 89.6316C40.7222 88.5969 41.3708 87.7554 42.3967 87.5439C42.9395 87.4289 43.51 87.4151 44.0712 87.4151C56.4874 87.4059 68.9036 87.4703 81.3199 87.3553C83.5924 87.3323 85.888 86.7345 88.1145 86.1781C91.2611 85.3917 94.4353 84.5962 97.4485 83.4236C99.3899 82.6694 101.12 81.3083 102.831 80.0575C104.165 79.078 105.149 78.9768 106.415 80.1126C106.741 80.4023 107.072 80.6829 107.592 81.1289V79.731C107.592 74.5576 107.588 69.3797 107.597 64.2063C107.601 62.9371 108.324 62.0634 109.437 61.8887C110.578 61.7047 111.613 62.2474 111.953 63.2912C112.101 63.7419 112.096 64.2477 112.096 64.7306C112.105 70.5799 112.105 76.4292 112.105 82.2785V83.8098C114.704 84.5272 117.34 85.3044 119.999 85.9666C121.591 86.3666 123.233 86.5782 124.848 86.8817C126.279 87.1484 126.941 87.9117 126.946 89.3373C126.955 94.1381 127.084 98.9436 126.909 103.735C126.697 109.511 124.36 114.533 120.777 118.989C117.533 123.026 113.586 126.309 109.4 129.312C106.231 131.584 102.987 131.552 99.8131 129.28C98.4744 128.319 97.2323 127.225 95.8798 126.291C95.3416 125.923 94.6239 125.62 93.9845 125.62C74.7414 125.583 55.4984 125.597 36.2553 125.587C31.1903 125.583 27.0915 122.764 25.5826 118.193C25.233 117.145 25.0259 116 25.0259 114.896C24.9983 87.0748 24.9937 59.2491 25.0075 31.4326C25.0121 25.7029 29.8793 20.8239 35.6112 20.7595C38.8729 20.7227 42.1391 20.7503 45.4007 20.7503H46.6336C46.445 18.6028 47.4018 17.1128 49.0809 16.0184H88.0087V16Z" fill="#A25A9F"/>
<path d="M61.7695 49.4636H59.0461C55.3843 49.4636 54.9564 49.0406 54.9564 45.4307V42.6578H50.5677C50.5677 43.9592 50.5723 45.187 50.5631 46.4148C50.5493 48.6405 49.7351 49.4544 47.5085 49.4636C46.2526 49.4682 44.9968 49.4636 43.7455 49.4636V53.846C44.9324 53.846 46.0502 53.8414 47.1681 53.846C49.8639 53.846 50.5631 54.5358 50.5631 57.2214V60.6335H54.846L54.938 60.3346C54.9472 59.1343 54.9472 57.9387 54.9564 56.7385C54.9702 54.7335 55.8305 53.8552 57.8132 53.8414C59.1151 53.8322 60.4124 53.8414 61.7695 53.8414V49.4636ZM45.8524 44.8467C45.9582 43.6603 45.9444 42.6394 46.1514 41.6599C46.5977 39.5354 48.4194 38.1007 50.5815 38.0593C51.8972 38.0363 53.2083 38.0501 54.5194 38.0547C57.5096 38.0639 59.4325 39.9079 59.5567 42.9061C59.5843 43.4994 59.5613 44.0926 59.5613 44.8421C60.2744 44.8421 60.9 44.8283 61.5257 44.8421C64.4008 44.9203 66.3606 46.9115 66.3882 49.7809C66.402 51.0179 66.402 52.2549 66.3882 53.4919C66.3652 56.3706 64.4468 58.3342 61.5441 58.4492C60.9506 58.4721 60.3526 58.4538 59.5705 58.4538C59.5705 59.0286 59.5751 59.5344 59.5659 60.0402C59.5245 63.3742 57.6292 65.2504 54.3124 65.255C53.1485 65.2596 51.9846 65.2642 50.8253 65.255C48.033 65.232 46.0272 63.25 45.9582 60.4449C45.9444 59.8195 45.9536 59.1941 45.9536 58.5503C44.8634 58.463 43.8881 58.463 42.945 58.2974C40.7139 57.9111 39.1958 56.0579 39.1728 53.7909C39.159 52.4435 39.1636 51.0915 39.1682 49.7441C39.1774 46.9207 41.0957 44.9433 43.9249 44.8467C44.5551 44.8283 45.1854 44.8467 45.8524 44.8467Z" fill="#A25A9F"/>
<path d="M68.6514 74.0333C77.047 74.0333 85.4471 74.0287 93.8427 74.0379C94.3257 74.0379 94.8363 74.0241 95.2872 74.1528C96.2256 74.4287 96.8375 75.4266 96.7731 76.4245C96.7087 77.4592 95.9174 78.3467 94.8915 78.5168L94.3303 78.5398C77.2724 78.5398 60.2145 78.5444 43.1611 78.5352C41.9052 78.5306 41.0266 77.9144 40.7598 76.9119C40.3687 75.422 41.3394 74.1114 42.8943 74.0379C43.2301 74.0195 43.5706 74.0287 43.9064 74.0287H68.6514V74.0333Z" fill="#A25A9F"/>
<path d="M86.1264 51.726C82.7912 51.726 79.4513 51.7444 76.1161 51.7214C74.0414 51.703 72.8177 50.0291 73.6504 48.3966C74.1104 47.5045 74.9062 47.109 75.8631 47.1044C82.6854 47.0906 89.5076 47.0814 96.3299 47.1136C97.7606 47.1228 98.768 48.1483 98.7726 49.3945C98.7818 50.6867 97.7514 51.6938 96.2471 51.7122C92.875 51.749 89.503 51.726 86.1264 51.726Z" fill="#A25A9F"/>
<path d="M85.6031 65.0941C82.4519 65.0941 79.3007 65.1033 76.1541 65.0895C74.4244 65.0849 73.3939 64.2204 73.4077 62.8225C73.4215 61.4521 74.5072 60.5554 76.1909 60.5554C82.5301 60.5508 88.8693 60.5462 95.204 60.56C96.9383 60.5646 97.9596 61.682 97.7157 63.2455C97.5317 64.3905 96.6623 65.0803 95.2822 65.0895C92.0528 65.1079 88.8279 65.0941 85.6031 65.0941Z" fill="#A25A9F"/>
<path d="M112.093 55.0462C112.106 56.3384 111.14 57.3547 109.885 57.3777C108.652 57.4007 107.612 56.3706 107.598 55.1152C107.58 53.8368 108.56 52.8113 109.816 52.7883C111.071 52.7699 112.083 53.7678 112.093 55.0462Z" fill="#A25A9F"/>
<path d="M101.987 107.309C103.528 105.621 104.991 104.025 106.449 102.425C108.165 100.54 109.872 98.6451 111.592 96.7643C112.696 95.5595 114.021 95.4077 115.052 96.3274C116.082 97.2425 116.073 98.6129 114.987 99.8131C111.362 103.814 107.728 107.805 104.089 111.792C102.866 113.13 101.614 113.19 100.289 111.972C98.5551 110.371 96.8254 108.757 95.1187 107.129C94.0192 106.076 93.9272 104.715 94.8381 103.74C95.7443 102.775 97.106 102.784 98.2423 103.809C99.4844 104.936 100.694 106.099 101.987 107.309Z" fill="#A25A9F"/>
</svg>
