<svg width="90" height="62" viewBox="0 0 90 62" fill="none" xmlns="http://www.w3.org/2000/svg">
<path d="M45.0265 0.500084L45.0266 0.500084C67.7235 0.535784 85.9968 16.9229 85.9562 36.9796C85.9562 36.9806 85.9562 36.9817 85.9562 36.9827L85.9274 39.0242H85.9273L85.9274 39.0342L85.9634 45.1981L85.9634 45.1999L85.9994 49.0161C85.9994 49.0169 85.9994 49.0176 85.9994 49.0184C85.9989 50.8143 85.4429 52.4456 84.3819 53.7635C83.4762 54.8834 81.32 56.8212 77.1394 56.8212H76.729C75.7818 56.8212 74.9834 56.8098 74.0949 56.7971C73.988 56.7956 73.8797 56.794 73.7696 56.7924H73.7626H73.5791H73.5754L73.4149 56.7899C72.0371 56.7686 70.2955 56.7417 67.4638 56.7347H67.4626H65.3897C60.3548 56.7277 55.3307 57.2004 50.3853 58.1464L50.3437 58.1516L50.3203 58.1546L50.2972 58.1597C49.6492 58.3039 47.8939 58.719 46.8532 59.0589C46.8529 59.059 46.8525 59.0591 46.8521 59.0592L45.1954 59.5901L43.5251 59.1388C43.5246 59.1386 43.5242 59.1385 43.5237 59.1384C41.8547 58.6813 40.1431 58.2447 39.8051 58.1792C38.2278 57.8488 32.594 56.8069 24.9615 56.7996H24.961H24.7018H24.701C20.8037 56.8062 18.6378 56.8427 16.9605 56.8709C16.7969 56.8737 16.638 56.8764 16.4825 56.8789H16.3066V56.8788L16.297 56.879C16.1767 56.8813 16.0584 56.8836 15.9414 56.8859C14.958 56.905 14.0738 56.9222 12.9658 56.9222H12.937C10.2845 56.9222 8.06957 56.1071 6.5223 54.7485C4.97947 53.3938 4.07277 51.4761 4.0626 49.2013L4.06259 49.2L3.9906 39.1955L3.99059 39.1935L3.9834 36.8403C3.9834 36.84 3.9834 36.8396 3.9834 36.8392C4.01241 16.7814 22.3361 0.457244 45.0265 0.500084Z" fill="#001689" stroke="white"/>
<path fill-rule="evenodd" clip-rule="evenodd" d="M3.47656 40.6605C3.52696 19.9121 22.1606 5.04656 45.0566 5.08982C67.9454 5.13307 86.5358 20.0563 86.4998 40.8335V41.1652L3.48376 41.331V40.6749L3.47656 40.6605Z" fill="white"/>
<path fill-rule="evenodd" clip-rule="evenodd" d="M44.9703 6.0055C29.6775 6.0055 16.3287 12.739 9.40234 23.4664C12.9447 32.2257 27.8775 38.8222 45.7623 38.8511C62.6823 38.8799 76.9671 33.0332 81.5031 25.0092C74.8791 13.4095 61.0407 6.03434 45.0495 5.99829H44.9775" fill="url(#paint0_radial_31_2060)"/>
<path fill-rule="evenodd" clip-rule="evenodd" d="M63.554 21.1665C61.754 19.941 57.6716 16.9419 55.5548 16.3507C52.394 15.4568 48.8588 18.2035 46.9292 18.5856C45.0068 18.9461 43.6028 16.6535 41.8172 16.6175C40.3772 16.5886 33.4076 19.3858 31.4492 20.1212L35.7332 21.9524C36.3236 22.3345 52.25 25.8093 64.5044 22.3128L63.554 21.1593V21.1665Z" fill="white"/>
<path fill-rule="evenodd" clip-rule="evenodd" d="M31.4492 20.1213C33.4076 19.3859 40.3772 16.5887 41.8172 16.6175C42.5948 16.6247 43.3004 17.0717 44.006 17.5475C42.998 17.2808 41.2268 16.1778 40.4348 18.0378C40.0316 18.9894 39.3548 21.044 38.5196 21.3396C36.4316 22.421 31.4492 20.1213 31.4492 20.1213Z" fill="#3EBFEF"/>
<path fill-rule="evenodd" clip-rule="evenodd" d="M49.8515 18.8164C51.5003 17.9152 51.9827 17.1727 52.2419 16.4806C50.1035 17.0645 47.7635 18.5641 46.6187 18.6145C46.2227 18.629 45.9851 18.5569 45.6899 18.4776C45.6035 18.9101 45.1859 19.7608 44.9339 20.2655C44.4443 21.2748 43.3499 21.7073 42.5867 22.3057L42.5723 22.3273C43.9043 22.832 45.0275 24.2018 46.3955 23.9638L47.0219 23.6755C47.2739 22.7959 47.9363 19.8545 49.8515 18.8092" fill="#EBF6FC"/>
<path fill-rule="evenodd" clip-rule="evenodd" d="M52.6824 16.3651C51.1128 16.7688 49.0104 17.7565 47.8008 18.2972C47.3112 18.5207 47.9232 20.2005 47.9808 20.943C48.4204 20.1057 49.1136 19.4293 49.9608 19.0109C51.408 18.2251 52.1712 17.7349 52.3872 17.1221L52.632 16.4805L52.6824 16.3579V16.3651Z" fill="#93D5F5"/>
<mask id="mask0_31_2060" style="mask-type:luminance" maskUnits="userSpaceOnUse" x="4" y="6" width="82" height="35">
<path d="M4.349 40.4082L85.637 40.2351C85.3202 20.2365 67.2482 6.04863 45.0506 6.00537H44.9786C22.6874 6.00537 4.5362 20.3014 4.3418 40.4082H4.349Z" fill="white"/>
</mask>
<g mask="url(#mask0_31_2060)">
<path fill-rule="evenodd" clip-rule="evenodd" d="M1.2528 19.328C1.2528 19.328 5.1048 19.1189 22.9536 16.1126C31.1328 14.7356 42.7104 24.1726 49.7088 23.3219C56.7 22.4568 66.5928 19.227 73.8288 19.0252C79.8984 18.8522 85.8888 21.6422 85.8888 21.6422L85.86 36.825L1.2168 36.6736L1.2528 19.328Z" fill="#006F3F"/>
</g>
<mask id="mask1_31_2060" style="mask-type:luminance" maskUnits="userSpaceOnUse" x="4" y="6" width="82" height="35">
<path d="M4.349 40.4082L85.637 40.2351C85.3202 20.2365 67.2482 6.04863 45.0506 6.00537H44.9786C22.6874 6.00537 4.5362 20.3014 4.3418 40.4082H4.349Z" fill="white"/>
</mask>
<g mask="url(#mask1_31_2060)">
<path fill-rule="evenodd" clip-rule="evenodd" d="M1.20215 25.8667C1.20215 25.8667 24.5158 25.4125 32.659 23.74C39.6646 22.3053 45.799 25.4846 49.3341 25.4486C52.8694 25.4198 54.7341 23.3939 61.9846 23.5021C70.531 23.6246 85.903 26.3209 85.903 26.3209L85.8526 36.9114L1.22375 36.7672L1.20215 25.8667Z" fill="#FFEC00"/>
</g>
<mask id="mask2_31_2060" style="mask-type:luminance" maskUnits="userSpaceOnUse" x="4" y="6" width="82" height="35">
<path d="M4.349 40.4082L85.637 40.2351C85.3202 20.2365 67.2482 6.04863 45.0506 6.00537H44.9786C22.6874 6.00537 4.5362 20.3014 4.3418 40.4082H4.349Z" fill="white"/>
</mask>
<g mask="url(#mask2_31_2060)">
<path fill-rule="evenodd" clip-rule="evenodd" d="M1.18848 31.4326C1.18848 31.4326 24.0269 26.314 32.5301 25.1244C39.6293 24.1295 46.2101 26.8186 49.7525 26.7826C53.2805 26.7537 54.7925 25.1821 62.0501 25.2902C70.5965 25.4128 85.9037 30.3007 85.9037 30.3007L87.7757 41.5616L1.20288 41.6914L1.18848 31.4398V31.4326Z" fill="#81B82E"/>
</g>
<path d="M89.3983 39.416L89.3983 39.4168L89.4343 45.9549L89.4343 45.9566L89.4703 49.9965C89.4703 49.9972 89.4703 49.9978 89.4703 49.9984C89.4699 51.913 88.8588 53.6513 87.7125 55.0494C86.7211 56.2427 84.3692 58.3066 79.832 58.3135H79.3863C78.3541 58.3135 77.4976 58.3022 76.5414 58.2895C76.4209 58.288 76.2987 58.2863 76.1744 58.2847H76.1679H75.9782C74.4358 58.2558 72.5329 58.227 69.3363 58.2198H69.3351H67.0887H67.0879C58.8369 58.2343 52.5892 59.3646 50.8205 59.7144L50.7894 59.7206L50.7592 59.7306L50.725 59.7421C49.9802 59.8892 48.1154 60.3393 47.0184 60.6789L47.0165 60.6795L45.2031 61.249L43.3772 60.7668L43.3767 60.7667L79.7535 30.6684C85.6935 30.6756 89.8623 34.2731 89.8983 39.4133L89.3983 39.416ZM89.3983 39.416C89.3811 36.9896 88.3925 34.9425 86.7134 33.4946C85.0292 32.0424 82.6238 31.172 79.7533 31.1684M89.3983 39.416L79.7533 31.1684M79.7533 31.1684H79.6972C78.2674 31.1756 77.1682 31.19 75.9029 31.2116L75.8943 31.2117L75.8568 31.2117C73.9605 31.255 71.5952 31.2982 66.9735 31.2982H66.6855H66.6851C58.5208 31.2909 52.3381 30.1824 50.6338 29.8469L50.6321 29.8466C49.9012 29.7002 47.9906 29.2495 46.86 28.8967C46.8597 28.8966 46.8593 28.8965 46.859 28.8964L44.9 28.2939L42.9387 28.9105L42.9308 28.913L42.9308 28.9129C41.695 29.2791 40.4448 29.595 39.1835 29.86L39.1736 29.8621L39.1735 29.862C33.7995 30.8772 28.3418 31.3822 22.873 31.3703H20.6775H20.6765C17.5049 31.3635 15.5434 31.3312 14.2186 31.3093C14.1358 31.308 14.0554 31.3067 13.9774 31.3054H13.7727H13.7658L13.7658 31.3053C13.6685 31.304 13.5724 31.3026 13.4771 31.3013C12.5485 31.2883 11.7028 31.2765 10.7271 31.2765H10.1367C6.665 31.2765 4.50134 32.4896 3.30111 33.4956L3.29869 33.4976L3.29868 33.4976C2.40647 34.2359 1.69154 35.1657 1.20689 36.2183C0.722244 37.2709 0.480317 38.4192 0.499058 39.5782L0.499134 39.5829L0.571112 50.2022L0.571121 50.2035C0.581309 52.6182 1.56569 54.6576 3.24711 56.101C4.93378 57.549 7.34845 58.4182 10.2381 58.4217H10.2591C11.4735 58.4217 12.443 58.4042 13.5137 58.3849C13.6317 58.3828 13.7509 58.3806 13.8718 58.3785L13.8807 58.3783V58.3784H14.0776C14.282 58.3745 14.4919 58.3704 14.7095 58.3661C16.5143 58.3306 18.8488 58.2847 22.9815 58.2847L23.2613 58.2847C23.2616 58.2847 23.2619 58.2847 23.2623 58.2847H23.2623V58.7847L79.7533 31.1684Z" fill="#E52329" stroke="white"/>
<path fill-rule="evenodd" clip-rule="evenodd" d="M44.2432 57.4005C44.2144 57.3933 40.7512 56.4849 40.0312 56.3407C38.2672 55.9875 31.8664 54.8268 23.2768 54.8124H22.9888C18.3016 54.8196 15.9256 54.8628 14.0104 54.8989H13.7944C12.592 54.9277 11.5624 54.9421 10.2664 54.9421H10.2304C8.29363 54.9421 6.62323 54.4159 5.50723 53.457C5.03408 53.0561 4.65704 52.5538 4.40404 51.9872C4.15104 51.4207 4.02854 50.8044 4.04563 50.184L3.97363 39.5575C3.97363 38.1877 4.49923 37.0126 5.52163 36.1619C6.29203 35.5131 7.73203 34.7417 10.144 34.7489H10.72C11.7928 34.7489 12.7288 34.7633 13.7224 34.7777H13.924C16.9068 34.8399 19.8903 34.8615 22.8736 34.8426C28.5744 34.8552 34.2636 34.329 39.8656 33.271C40.672 33.1052 42.688 32.6366 43.984 32.2256L44.9056 31.9373L45.8344 32.2256C47.1448 32.6221 49.1896 33.0907 49.9528 33.2493C51.7312 33.6098 58.1896 34.7633 66.6712 34.7705L66.9808 34.7777C71.632 34.7777 74.0152 34.7273 75.9304 34.6912H75.9736C77.2264 34.6624 78.3136 34.6407 79.7032 34.6407H79.7464C81.6688 34.6407 83.3464 35.1742 84.448 36.1259C84.9252 36.5337 85.3053 37.0431 85.5607 37.6168C85.816 38.1906 85.9402 38.8142 85.924 39.4421L85.96 45.9738L86.0032 50.0326C86.0032 51.114 85.672 52.0656 85.0456 52.837C84.4264 53.5868 82.9288 54.834 79.8184 54.8484H79.3864L76.3624 54.8124L76.0384 54.8052C74.4904 54.7835 72.568 54.7547 69.3496 54.7475H67.0888C61.4004 54.7371 55.7236 55.2609 50.1328 56.3119L50.0392 56.3335C48.6692 56.6219 47.312 56.9682 45.9712 57.3717L45.1216 57.6312L44.2432 57.4005Z" fill="white"/>
<path fill-rule="evenodd" clip-rule="evenodd" d="M79.3439 37.9213H82.7783L82.7567 50.8115H79.4087V50.0257C78.8759 50.6529 78.0335 51.0638 76.8239 51.071C74.2463 51.071 73.1375 48.3603 73.0943 45.7145V45.5415C73.0799 43.4364 74.1167 40.7329 76.9247 40.7185C77.9759 40.7185 79.0487 40.9852 79.3151 41.5259H79.3439V37.9213ZM57.5999 40.6824H57.8447L58.0895 40.6968C59.6807 40.7978 61.3223 41.425 61.4015 43.631V43.8041L61.3943 50.7755L58.3487 50.7682L58.3415 50.0041L58.2335 50.1122L58.1255 50.2203C57.6076 50.735 56.9111 51.0295 56.1815 51.0422C54.1655 51.0494 52.9559 50.2348 52.9415 48.1585C52.9415 46.4066 54.1295 45.6568 55.3823 45.2027L55.6703 45.1017L55.9583 45.008L56.9159 44.7341L57.1607 44.662C57.7943 44.4601 58.2407 44.2366 58.2263 43.8329C58.2047 43.1841 57.6647 43.0831 57.1319 43.0831H57.0455C56.1095 43.0831 55.4111 43.3499 54.5759 43.768L53.6831 44.2366L53.8991 41.771C54.9575 40.8482 56.2103 40.6896 57.5999 40.6896V40.6824ZM33.1487 40.6608H33.3287L33.6959 40.6752C34.5239 40.7113 35.4239 40.8338 35.9135 41.1438L36.0143 41.2159V44.3015C35.5319 43.8834 34.1351 43.7968 33.7463 43.8473C32.7095 44.0131 31.8743 44.5971 31.8743 46.0606C31.8743 47.2645 32.4143 48.2306 33.6743 48.2378C34.6247 48.2378 35.5895 48.0215 35.9423 47.8341L36.0071 47.798L35.9927 50.6601C35.6903 50.7971 35.0063 50.8764 34.3367 50.9268L33.8975 50.9629L33.6815 50.9701L33.2999 50.9845L32.8679 50.9989C29.5559 50.9989 28.4903 48.5694 28.4759 45.8515C28.4615 42.7803 29.9879 40.6536 33.1559 40.6608H33.1487ZM22.8527 40.6464C22.9967 40.6464 23.1407 40.6464 23.2991 40.6608L23.5295 40.6896L23.7599 40.7257L23.9975 40.7689L24.2351 40.8338C25.9127 41.288 27.6767 42.665 27.6767 45.7434C27.6767 49.7085 24.7751 50.9773 22.8743 50.9773L22.5431 50.9701L22.3199 50.9485C20.4479 50.7322 18.0215 49.348 18.0215 45.765C18.0287 42.1675 20.4407 40.8915 22.3055 40.6752L22.5359 40.6536L22.8599 40.6464H22.8527ZM69.0983 40.6752C70.6967 40.6752 72.2087 41.6773 72.2231 43.9627L72.2087 50.7899H68.7599L68.7815 45.4045C68.7815 44.1717 68.4647 43.7248 67.5287 43.7248C66.7295 43.7248 66.2039 44.1573 66.2111 45.3685L66.2039 50.7755H62.7551L62.7767 40.9924H66.2183V41.8864L66.2903 41.7927C66.9239 40.8987 67.7663 40.6752 69.0839 40.6752H69.0983ZM48.3911 37.8636L51.6743 37.8708L51.6527 50.7538H48.2255L48.2399 37.8708H48.3839L48.3911 37.8636ZM37.4039 37.8492L40.7879 37.8564V41.9585L40.8671 41.8431C41.4935 40.9492 42.3287 40.7185 43.6391 40.7185C45.2447 40.7185 46.7279 41.7206 46.7423 43.9987L46.7279 50.7466H43.3439V45.4478C43.3439 44.215 43.0271 43.7752 42.0839 43.7752C41.2919 43.7752 40.8023 44.2294 40.8095 45.4334L40.7951 50.7394H37.3823L37.4039 37.8492ZM7.52392 37.7987H10.9655L10.9583 42.2468H13.5071L13.5143 37.8059L16.9631 37.8131L16.9343 50.6961L13.4999 50.6889V45.6929H10.9583L10.9511 50.6817H7.49512L7.52392 37.7987ZM58.6367 46.1687C58.6367 46.2624 58.5215 46.3345 58.3343 46.3922L58.1543 46.4499L57.5783 46.6013L57.1895 46.7238L56.9159 46.8175C56.5271 46.9762 56.0087 47.2501 56.0015 47.8989C56.0087 48.4757 56.6063 48.7352 56.9735 48.7352C57.3119 48.7352 57.5999 48.6559 57.8375 48.5117L57.9383 48.4396C58.3055 48.2234 58.5215 47.8268 58.6007 47.2501L58.6151 47.1059C58.6439 46.8175 58.6583 46.5148 58.6367 46.1687ZM77.7023 43.5013C77.0543 43.5013 75.9455 43.9482 75.9455 45.8587C75.9599 47.7475 77.0687 48.1945 77.7167 48.1945C78.3647 48.1945 79.3727 47.7475 79.3727 45.8371C79.3511 43.9338 78.3503 43.5013 77.7023 43.5013ZM22.8383 43.5013C22.1039 43.5013 20.9807 43.9194 20.9879 45.7361C20.9879 47.5529 22.1255 47.971 22.8599 47.971C23.5943 47.971 24.7319 47.5457 24.7175 45.7361C24.7031 43.9194 23.5799 43.5013 22.8455 43.5013H22.8383Z" fill="#001689"/>
<defs>
<radialGradient id="paint0_radial_31_2060" cx="0" cy="0" r="1" gradientUnits="userSpaceOnUse" gradientTransform="translate(1261.38 -3618.46) rotate(-90) scale(3474.69 1463.42)">
<stop stop-color="#F3FBFF"/>
<stop offset="0.5346" stop-color="#DDF1FB"/>
<stop offset="0.6683" stop-color="#C6E8F9"/>
<stop offset="1" stop-color="#80CFF3"/>
</radialGradient>
</defs>
</svg>
