<svg width="146" height="148" viewBox="0 0 146 148" fill="none" xmlns="http://www.w3.org/2000/svg">
<rect width="146" height="148" fill="white"/>
<path d="M88.3022 31.0862C88.3022 29.4769 88.3074 27.8675 88.3022 26.2582C88.297 25.1905 87.7087 24.5551 86.7718 24.5655C85.8764 24.5759 85.3038 25.2165 85.3038 26.2425C85.3038 29.4404 85.3038 32.6331 85.3038 35.8309C85.3038 36.883 85.9129 37.5861 86.7926 37.5757C87.6983 37.5705 88.3022 36.8882 88.3074 35.8466C88.3074 34.2633 88.3022 32.6747 88.3022 31.0862ZM69.8125 31.0185C69.8125 29.4092 69.8125 27.7998 69.8125 26.1905C69.8125 25.5603 69.5834 25.0603 69.0265 24.753C67.9593 24.154 66.7933 24.9092 66.7881 26.2478C66.7673 29.4456 66.7725 32.6383 66.7829 35.8309C66.7881 36.8934 67.4076 37.5861 68.2873 37.5809C69.2086 37.5757 69.8073 36.8726 69.8125 35.7737C69.8177 34.1903 69.8125 32.6018 69.8125 31.0185ZM51.3124 31.0654C51.3124 29.4821 51.328 27.8988 51.3072 26.3103C51.2968 25.1905 50.6825 24.5342 49.7403 24.5603C48.8346 24.5811 48.2776 25.2478 48.2776 26.3311C48.2724 28.7321 48.2776 31.1331 48.2776 33.5341C48.2776 34.3726 48.2568 35.2164 48.288 36.0549C48.314 36.8986 48.9491 37.5393 49.7299 37.5705C50.5264 37.5965 51.1614 37.0341 51.2811 36.1747C51.3124 35.9403 51.3124 35.6955 51.3124 35.456C51.3176 33.9976 51.3176 32.5341 51.3124 31.0654ZM103.783 31.0081C103.783 32.5914 103.783 34.1747 103.783 35.7632C103.783 36.8674 104.382 37.5809 105.293 37.5809C106.204 37.5809 106.818 36.8726 106.818 35.7737C106.823 32.6279 106.823 29.4821 106.818 26.3363C106.818 25.2269 106.204 24.5499 105.267 24.5707C104.361 24.5863 103.794 25.2582 103.788 26.3259C103.778 27.8831 103.783 29.4456 103.783 31.0081ZM32.7967 31.055C32.7967 29.4665 32.8019 27.8831 32.7967 26.2946C32.7915 25.2113 32.2241 24.5655 31.2975 24.5603C30.3813 24.5551 29.7723 25.2009 29.7619 26.2738C29.7463 29.4717 29.7463 32.6695 29.7619 35.8622C29.7671 36.9038 30.4282 37.5965 31.3079 37.5757C32.2032 37.5549 32.7862 36.8726 32.7915 35.8101C32.8071 34.2268 32.7967 32.6435 32.7967 31.055ZM18.2839 45.9454H19.5592H115.969C116.495 45.9454 117.026 45.9193 117.551 45.9506C118.041 45.9818 118.239 45.8204 118.228 45.3048C118.197 43.9819 118.244 42.659 118.207 41.3413C118.171 39.8673 117.739 38.4976 116.896 37.284C115.547 35.3518 113.705 34.2372 111.237 33.9247C111.237 34.6903 111.253 35.3778 111.237 36.0653C111.149 39.3101 108.749 41.8361 105.615 41.9975C102.497 42.1538 99.8478 39.9403 99.4366 36.758C99.3169 35.8414 99.421 34.8935 99.421 34.0341L99.1867 33.8935C97.167 33.8778 95.1525 33.857 93.138 33.8831L92.7528 34.4039C92.7008 35.0497 92.7476 35.7007 92.7164 36.3518C92.5862 39.3517 90.3271 41.6902 87.2767 41.9923C84.4345 42.2736 81.6652 40.284 81.0614 37.4143C80.8636 36.4664 80.9157 35.456 80.9 34.4768C80.8896 34.0133 80.7439 33.8414 80.2702 33.8466C78.948 33.8674 77.6258 33.8518 76.3089 33.8518H74.2319C74.2319 34.6955 74.2371 35.4403 74.2319 36.1747C74.1955 39.3674 71.5615 41.9819 68.3706 42.0027C64.9975 42.0236 62.4468 39.4194 62.3739 35.857C62.3583 35.2164 62.3739 34.5758 62.3739 33.8518C60.2241 33.8518 58.1679 33.8414 56.1066 33.8778L55.7318 34.4091C55.6797 35.0341 55.7266 35.6591 55.7006 36.2841C55.5756 39.5288 52.9625 42.0392 49.7507 42.0027C46.513 41.9663 43.9155 39.3569 43.8842 36.107C43.879 35.3935 43.8842 34.6747 43.8842 33.9612L43.5355 33.8622C41.5886 33.857 39.647 33.857 37.7002 33.8466C37.2473 33.8466 37.2213 34.1122 37.2161 34.4612C37.2057 35.3518 37.2785 36.258 37.1276 37.1226C36.6018 40.1226 33.843 42.2527 30.9227 41.9923C27.7162 41.7111 25.4206 39.258 25.3945 36.0705C25.3893 35.383 25.3945 34.6955 25.3945 33.9664C25.1134 33.9768 24.9469 33.9664 24.7855 33.9976C21.7039 34.6539 19.4655 36.4195 18.7576 39.4976C18.2683 41.5392 18.4193 43.7215 18.2839 45.9454ZM135.578 105.648C135.578 102.596 135.099 99.6842 134.172 97.0123C129.566 83.8146 116.042 76.1533 102.31 79.1011C85.2101 82.7625 75.6113 101.189 83.2945 117.293C88.552 128.319 100.66 134.481 112.955 132.376C125.937 130.147 135.588 118.757 135.578 105.648ZM118.176 50.4349H18.4088V51.2161C18.4088 69.9606 18.4036 88.7052 18.4088 107.45C18.4088 111.793 21.782 115.163 26.1441 115.168C43.0305 115.174 59.9117 115.168 76.7982 115.168C77.048 115.168 77.3031 115.142 77.605 115.127C74.4505 103.726 76.6732 93.5697 84.3564 84.5229C83.6121 84.5229 83.0134 84.5333 82.42 84.5229C81.0406 84.4865 80.0828 83.5594 80.0932 82.2886C80.1036 81.0178 81.0666 80.122 82.4565 80.1167C84.091 80.1063 85.7255 80.1115 87.3548 80.1167C87.6359 80.1167 87.9638 80.1167 88.1928 80.2522C88.6717 80.523 88.9945 80.398 89.4109 80.1063C97.1774 74.6481 105.714 72.9033 115.001 74.8252C116.047 75.0439 117.078 75.3512 118.171 75.6376V50.4349H118.176ZM37.2057 29.3571C37.4659 29.3883 37.6273 29.4248 37.7887 29.4248C39.7771 29.43 41.7708 29.4248 43.8686 29.4248C43.8686 28.2581 43.8478 27.1644 43.8686 26.0655C43.9259 23.5759 45.0763 21.7426 47.325 20.6801C51.0521 18.9249 55.3778 21.4718 55.6641 25.5811C55.737 26.654 55.6901 27.7425 55.7006 28.8206C55.7006 29.154 55.7162 29.43 56.1899 29.4248C58.2044 29.4092 60.2189 29.4196 62.3583 29.4196C62.3583 29.0342 62.3427 28.6852 62.3583 28.3363C62.4312 27.0186 62.3375 25.6644 62.6446 24.404C63.3421 21.5551 66.1999 19.7687 69.0941 20.1801C72.0196 20.5968 74.1902 23.0447 74.2163 25.9717C74.2267 27.0915 74.2163 28.2165 74.2163 29.3675C74.4974 29.3935 74.6796 29.4196 74.867 29.4196C76.8294 29.4248 78.7971 29.4196 80.874 29.4196C80.874 28.3102 80.8844 27.2634 80.874 26.2165C80.8532 25.029 81.1239 23.9353 81.7537 22.9249C83.1384 20.7114 85.7723 19.6645 88.323 20.326C90.8164 20.9718 92.6018 23.1697 92.706 25.7738C92.7476 26.9457 92.7112 28.1175 92.7112 29.4196H96.001H99.3325C99.3481 29.1279 99.3689 28.8727 99.3741 28.6227C99.3845 27.5446 99.296 26.4509 99.4262 25.3832C99.827 22.0968 102.503 19.9353 105.808 20.1489C108.843 20.3468 111.185 22.9145 111.237 26.1019C111.248 27.0134 111.258 27.93 111.232 28.8415C111.222 29.3102 111.347 29.4873 111.857 29.555C117.114 30.2581 121.076 33.7164 122.268 38.6851C122.502 39.659 122.616 40.6798 122.616 41.6798C122.642 53.3359 122.637 64.992 122.616 76.648C122.616 77.3147 122.83 77.648 123.408 77.9762C132.33 83.0177 138.009 90.5176 139.57 100.679C141.346 112.252 137.598 122.038 128.728 129.679C122.309 135.204 114.694 137.72 106.266 137.132C94.6268 136.324 85.8712 130.689 80.062 120.548C79.6507 119.83 79.2447 119.564 78.4118 119.564C61.0934 119.59 43.7749 119.59 26.4564 119.585C20.8398 119.585 16.2174 116.361 14.5985 111.241C14.2445 110.111 14.0311 108.887 14.0259 107.705C13.9946 85.5958 13.9946 63.4816 14.0103 41.3725C14.0103 35.3101 18.5234 30.331 24.6918 29.5654C25.2904 29.4925 25.3945 29.2685 25.3841 28.7581C25.3633 27.7738 25.3581 26.7894 25.3841 25.7998C25.4778 22.5968 28.1066 20.1176 31.3756 20.1385C34.5613 20.1593 37.1588 22.7166 37.2057 25.8936C37.2161 27.0446 37.2057 28.1904 37.2057 29.3571Z" fill="#A25A9F"/>
<path d="M51.668 72.3354C50.8039 72.3354 49.9398 72.351 49.081 72.3302C47.7692 72.2937 46.8895 71.4135 46.8791 70.1635C46.8738 68.9292 47.7588 67.9604 49.0341 67.9292C50.7831 67.8875 52.5374 67.8875 54.2864 67.9292C55.5929 67.9552 56.5247 68.9448 56.5039 70.1844C56.4831 71.4031 55.5669 72.2937 54.2656 72.3302C53.3963 72.351 52.5321 72.3354 51.668 72.3354Z" fill="#A25A9F"/>
<path d="M51.6504 80.1168C52.5406 80.1168 53.4255 80.1012 54.3104 80.1168C55.5181 80.1428 56.4238 81.0126 56.4915 82.1689C56.5592 83.3407 55.7783 84.4032 54.5811 84.4605C52.6447 84.5542 50.6978 84.5594 48.7614 84.4605C47.5381 84.398 46.7886 83.3147 46.8823 82.0803C46.9708 80.9553 47.8609 80.1376 49.0581 80.1168C49.9222 80.1064 50.7863 80.1168 51.6504 80.1168Z" fill="#A25A9F"/>
<path d="M51.6611 55.7682C52.5252 55.7682 53.3893 55.7526 54.2534 55.7682C55.5652 55.7994 56.5021 56.7421 56.4917 57.9921C56.4865 59.2108 55.5652 60.1587 54.2846 60.1744C52.5356 60.2004 50.7814 60.2056 49.0323 60.1692C47.757 60.1483 46.8669 59.19 46.8721 57.9504C46.8825 56.7109 47.783 55.7994 49.0688 55.7682C49.9329 55.7526 50.797 55.7682 51.6611 55.7682Z" fill="#A25A9F"/>
<path d="M51.66 96.6788C50.7959 96.6788 49.9318 96.6944 49.0729 96.6788C47.7975 96.6528 46.8918 95.7309 46.8814 94.4913C46.8762 93.2518 47.7819 92.2987 49.0416 92.2778C50.7906 92.257 52.5449 92.257 54.2939 92.2778C55.5536 92.2935 56.4906 93.2414 56.4958 94.4601C56.501 95.6788 55.5744 96.6319 54.3251 96.6788H54.1846H51.66Z" fill="#A25A9F"/>
<path d="M68.2731 72.3357C67.409 72.3357 66.5449 72.3565 65.686 72.3305C64.4002 72.294 63.4945 71.3826 63.4789 70.1587C63.4684 68.9816 64.3534 67.9816 65.5766 67.9399C67.3725 67.8826 69.1736 67.8826 70.9643 67.9399C72.25 67.9816 73.0985 68.9503 73.0777 70.1951C73.0568 71.4399 72.1719 72.2993 70.8497 72.3357C69.9961 72.3513 69.1372 72.3357 68.2731 72.3357Z" fill="#A25A9F"/>
<path d="M51.646 108.835C50.7819 108.835 49.9178 108.856 49.0589 108.83C47.82 108.794 46.9351 107.945 46.8778 106.788C46.8153 105.528 47.617 104.518 48.9079 104.466C50.7506 104.387 52.6038 104.382 54.4413 104.46C55.7218 104.512 56.5599 105.565 56.4922 106.788C56.4246 107.971 55.5136 108.814 54.2331 108.84C53.3742 108.851 52.5101 108.84 51.646 108.835Z" fill="#A25A9F"/>
<path d="M68.3077 55.7683C69.1718 55.7683 70.0359 55.7527 70.8948 55.7735C72.1753 55.8048 73.0758 56.7162 73.081 57.9558C73.0863 59.1954 72.1961 60.1537 70.926 60.1745C69.1509 60.2058 67.3759 60.2058 65.606 60.1693C64.3828 60.1433 63.477 59.1745 63.4718 57.9922C63.4666 56.7735 64.388 55.8308 65.6425 55.7735H65.783H68.3077" fill="#A25A9F"/>
<path d="M35.0446 96.6788C34.1805 96.6788 33.3164 96.6944 32.4523 96.6788C31.1822 96.6476 30.2764 95.7205 30.2816 94.4705C30.2816 93.2257 31.1978 92.2882 32.4627 92.2778C34.1961 92.257 35.9243 92.257 37.6525 92.2778C38.9435 92.2882 39.9117 93.2778 39.8857 94.5174C39.8648 95.7153 38.9018 96.6423 37.6421 96.684H37.4964H35.0446" fill="#A25A9F"/>
<path d="M101.496 60.1847C100.679 60.1847 99.8613 60.1951 99.0493 60.1847C97.6594 60.1586 96.7328 59.2524 96.7433 57.9555C96.7485 56.6639 97.6854 55.7785 99.0857 55.7681C100.72 55.7576 102.355 55.7576 103.984 55.7681C105.369 55.7785 106.332 56.6795 106.347 57.9503C106.363 59.242 105.379 60.1638 103.948 60.1795C103.125 60.1951 102.308 60.1847 101.496 60.1847Z" fill="#A25A9F"/>
<path d="M35.1076 55.7682C35.9457 55.7682 36.7838 55.7526 37.6218 55.7682C38.9284 55.7942 39.8914 56.7473 39.8862 57.9765C39.8862 59.216 38.9284 60.1639 37.6166 60.1796C35.9145 60.2004 34.2123 60.2004 32.5153 60.1796C31.1827 60.1587 30.277 59.2421 30.277 57.9713C30.2822 56.6952 31.1879 55.8046 32.5205 55.7682H32.6611H35.1076Z" fill="#A25A9F"/>
<path d="M84.9916 55.7683C85.8297 55.7683 86.673 55.7527 87.511 55.7735C88.7968 55.81 89.6869 56.7214 89.6921 57.9714C89.6921 59.2214 88.8124 60.1537 87.5215 60.1797C85.7724 60.211 84.0182 60.211 82.264 60.1745C81.0043 60.1485 80.0673 59.1485 80.0881 57.9454C80.1037 56.7475 81.0667 55.7996 82.3212 55.7735C83.2114 55.7527 84.1015 55.7683 84.9916 55.7683Z" fill="#A25A9F"/>
<path d="M68.2873 80.1168C69.1723 80.1168 70.0624 80.1012 70.9473 80.1168C72.129 80.1481 73.0087 80.9918 73.0815 82.122C73.1544 83.3459 72.4517 84.3824 71.244 84.4449C69.2868 84.549 67.3191 84.549 65.3619 84.4501C64.1751 84.3876 63.3994 83.2834 63.4879 82.1324C63.5816 80.971 64.4822 80.1376 65.7054 80.1168C66.5591 80.1064 67.4232 80.1168 68.2873 80.1168Z" fill="#A25A9F"/>
<path d="M35.0464 72.3354C34.1823 72.3354 33.3234 72.3562 32.4593 72.3302C31.1839 72.2937 30.3146 71.4448 30.2782 70.2313C30.2417 69.0021 31.0382 68.0125 32.2875 67.9605C34.1562 67.8875 36.025 67.8823 37.8885 67.9605C39.0702 68.0125 39.9238 69.0802 39.8822 70.2C39.8353 71.4031 38.9504 72.2937 37.7063 72.3302C36.8214 72.3562 35.9313 72.3354 35.0464 72.3354Z" fill="#A25A9F"/>
<path d="M35.0504 84.5283C34.2591 84.5283 33.4627 84.5387 32.6715 84.5283C31.2035 84.5074 30.277 83.6429 30.277 82.3147C30.277 80.9866 31.2035 80.1273 32.6715 80.1221C34.28 80.1169 35.8884 80.1169 37.4969 80.1221C38.8868 80.1273 39.8602 81.0127 39.881 82.2783C39.907 83.5595 38.9128 84.5074 37.4969 84.5283C36.6849 84.5387 35.8676 84.5283 35.0504 84.5283Z" fill="#A25A9F"/>
<path d="M68.273 92.2678C69.1372 92.2678 69.996 92.2574 70.8601 92.2678C72.1667 92.2886 73.0933 93.2157 73.0829 94.4865C73.0777 95.7209 72.1719 96.6532 70.8966 96.6688C69.1736 96.6896 67.4506 96.6896 65.7224 96.6688C64.4262 96.6584 63.4684 95.6896 63.4788 94.4501C63.4893 93.2053 64.4366 92.2886 65.7588 92.2678C66.5969 92.2626 67.435 92.273 68.273 92.2678Z" fill="#A25A9F"/>
<path d="M68.2723 108.835C67.4082 108.835 66.5441 108.856 65.68 108.83C64.4463 108.794 63.5562 107.95 63.4833 106.788C63.4104 105.601 64.2225 104.533 65.4614 104.476C67.3509 104.387 69.2561 104.387 71.1457 104.481C72.4002 104.544 73.155 105.58 73.0769 106.82C73.0092 107.95 72.1399 108.773 70.9323 108.83C70.4794 108.851 70.0213 108.835 69.5632 108.835C69.1364 108.84 68.7043 108.84 68.2723 108.835Z" fill="#A25A9F"/>
<path d="M101.499 72.3358C100.635 72.3358 99.7656 72.3566 98.9067 72.3306C97.6366 72.2889 96.762 71.4191 96.7412 70.2004C96.7204 68.9869 97.5533 67.9869 98.7922 67.9452C100.614 67.8775 102.441 67.8827 104.268 67.9504C105.507 67.9973 106.376 69.0129 106.35 70.19C106.319 71.4139 105.398 72.2993 104.102 72.3358C103.232 72.3514 102.363 72.3358 101.499 72.3358Z" fill="#A25A9F"/>
<path d="M84.8571 72.3305C83.993 72.3305 83.1289 72.3513 82.2648 72.3253C81.0363 72.2888 80.1878 71.4607 80.1045 70.2524C80.0264 69.117 80.8437 68.0285 82.0409 67.9712C83.9565 67.8827 85.8825 67.8775 87.7981 67.9712C89.037 68.0337 89.7762 69.0962 89.6877 70.3462C89.6044 71.4816 88.7351 72.2784 87.5223 72.3253L87.3817 72.3305H84.8571Z" fill="#A25A9F"/>
<path d="M35.0732 108.835C34.2091 108.835 33.345 108.851 32.4809 108.83C31.1899 108.799 30.3206 107.955 30.279 106.736C30.2321 105.507 31.0129 104.523 32.2935 104.466C34.1362 104.382 35.9945 104.382 37.8373 104.46C39.0918 104.518 39.935 105.554 39.8882 106.721C39.8361 107.934 38.9096 108.804 37.5978 108.835C36.7545 108.856 35.9165 108.84 35.0732 108.835Z" fill="#A25A9F"/>
<path d="M104.44 92.8196C105.439 92.83 106.152 93.3821 106.537 94.4758C107.834 98.1112 109.104 101.762 110.431 105.387C110.598 105.84 110.962 106.293 111.358 106.58C113.159 107.897 115.007 109.147 116.829 110.434C117.958 111.231 118.218 112.496 117.5 113.574C116.808 114.611 115.439 114.84 114.325 114.069C112.013 112.476 109.697 110.887 107.427 109.236C107.027 108.944 106.772 108.371 106.595 107.871C105.267 104.194 103.981 100.502 102.68 96.8195C102.545 96.4341 102.383 96.0591 102.274 95.6633C101.873 94.1529 102.909 92.7987 104.44 92.8196Z" fill="#A25A9F"/>
<path d="M86.1409 107.809C85.4434 107.809 84.7458 107.824 84.0535 107.809C82.8875 107.767 82.0286 106.918 81.9453 105.762C81.8724 104.679 82.622 103.585 83.736 103.507C85.3341 103.392 86.9477 103.392 88.5458 103.507C89.665 103.585 90.4146 104.673 90.3365 105.757C90.248 106.96 89.3839 107.783 88.1606 107.814C87.4839 107.83 86.8124 107.814 86.1409 107.809Z" fill="#A25A9F"/>
<path d="M130.033 107.814C129.335 107.814 128.638 107.835 127.945 107.814C126.837 107.768 126.004 106.965 125.894 105.872C125.78 104.757 126.467 103.617 127.56 103.533C129.226 103.403 130.913 103.403 132.578 103.533C133.677 103.617 134.338 104.726 134.234 105.866C134.135 106.96 133.302 107.768 132.193 107.814C131.475 107.835 130.756 107.814 130.033 107.814Z" fill="#A25A9F"/>
<path d="M110.29 83.9449C110.29 84.5907 110.305 85.2417 110.29 85.8876C110.248 87.1636 109.389 88.0334 108.176 88.0542C106.953 88.0802 105.964 87.2625 105.907 86.0282C105.839 84.6167 105.844 83.1949 105.907 81.7835C105.964 80.5699 107 79.6897 108.171 79.7314C109.342 79.7731 110.227 80.6428 110.284 81.8512C110.305 82.5543 110.285 83.247 110.29 83.9449Z" fill="#A25A9F"/>
<path d="M110.29 127.34C110.29 128.012 110.306 128.684 110.285 129.356C110.243 130.606 109.358 131.512 108.166 131.553C107 131.595 105.954 130.715 105.902 129.496C105.834 128.085 105.834 126.663 105.902 125.251C105.964 124.012 106.948 123.194 108.171 123.225C109.389 123.257 110.243 124.121 110.285 125.392C110.306 126.043 110.29 126.689 110.29 127.34Z" fill="#A25A9F"/>
</svg>
