<svg width="146" height="148" viewBox="0 0 146 148" fill="none" xmlns="http://www.w3.org/2000/svg">
<rect width="146" height="148" fill="white"/>
<path d="M18.21 53.0789C18.4963 51.6292 18.7046 50.1535 19.0951 48.7297C20.3441 43.5469 22.9845 38.7985 26.7347 34.9914C30.4849 31.1843 35.204 28.4612 40.3886 27.1127C42.981 26.3936 45.663 26.045 48.3541 26.0772C62.9837 26.0772 90.4986 26.0772 97.8134 26.0772C98.29 26.0906 98.7431 26.2866 99.0778 26.6243C99.4125 26.962 99.603 27.4152 99.6096 27.8893C99.6096 28.3631 99.4203 28.8175 99.0835 29.1525C98.7467 29.4874 98.2898 29.6756 97.8134 29.6756C90.3945 29.6756 61.9945 29.6756 47.2088 29.6756C43.8636 29.7076 40.5595 30.4121 37.4951 31.7468C34.4308 33.0815 31.6695 35.0188 29.3774 37.4422C25.0144 41.7264 22.3602 47.438 21.9064 53.519C21.4827 57.3688 21.9445 61.264 23.2568 64.9103C24.5691 68.5565 26.6976 71.8583 29.4815 74.5663C32.0545 77.0701 35.0986 79.0448 38.4397 80.3775C41.7808 81.7101 45.3533 82.3746 48.9529 82.3329H101.015C104.247 82.3106 107.359 83.542 109.692 85.7655C112.025 87.989 113.395 91.0294 113.51 94.241C113.626 97.4527 112.477 100.583 110.309 102.966C108.142 105.349 105.125 106.798 101.9 107.004C93.6484 107.004 78.29 107.004 73.1098 107.004C72.674 106.952 72.2726 106.743 71.9814 106.416C71.6903 106.089 71.5295 105.668 71.5295 105.231C71.5295 104.795 71.6903 104.373 71.9814 104.046C72.2726 103.72 72.674 103.51 73.1098 103.458H101.067C103.401 103.492 105.652 102.603 107.327 100.986C109.001 99.3698 109.961 97.1578 109.996 94.837C110.031 92.5163 109.137 90.277 107.511 88.6117C105.885 86.9464 103.661 85.9916 101.328 85.9573C93.5183 85.9573 85.7089 85.9571 77.8996 85.8018C68.6585 85.517 59.3914 85.6724 50.1503 85.8018C43.712 86.1332 37.3335 84.4297 31.9285 80.9349C28.3927 78.6936 25.3776 75.7286 23.084 72.2379C20.7904 68.7471 19.2708 64.8106 18.6265 60.6901C18.4963 60.0429 18.3401 59.3957 18.21 58.7485V53.0789Z" fill="#A25A9F"/>
<path d="M18.2082 113.425C18.9892 112.079 20.3428 112.286 21.6965 112.234V93.8273C21.6965 91.7044 22.2691 91.109 24.4297 91.109H54.4437C55.0634 91.0218 55.694 91.1597 56.2199 91.4972C56.7458 91.8348 57.1318 92.3494 57.3071 92.947C59.2161 97.3826 61.177 101.784 63.1901 106.15C63.9648 107.633 64.3159 109.298 64.2054 110.965C64.2054 111.328 64.2054 111.716 64.2054 112.208H66.0536C66.277 112.215 66.4968 112.266 66.6999 112.358C66.903 112.451 67.0854 112.584 67.236 112.748C67.3865 112.912 67.5023 113.105 67.5764 113.315C67.6506 113.524 67.6815 113.747 67.6675 113.968C67.6675 116.324 67.6675 118.654 67.6675 121.01C67.6838 121.243 67.6488 121.477 67.5648 121.695C67.4809 121.913 67.3501 122.111 67.1815 122.273C67.013 122.436 66.8107 122.56 66.5889 122.637C66.3671 122.714 66.1311 122.742 65.8974 122.719C64.3355 122.719 62.7736 122.719 61.1857 122.719C60.9949 122.721 60.8074 122.769 60.6396 122.859C60.4717 122.949 60.3286 123.079 60.2226 123.237C59.8077 124.369 59.1136 125.379 58.204 126.175C57.2944 126.971 56.1983 127.528 55.0164 127.793C55.0164 127.793 55.0164 127.793 54.8862 127.948H52.1009C52.1009 127.948 52.1009 127.948 51.9447 127.819C50.7569 127.558 49.6556 127 48.7447 126.198C47.8337 125.397 47.1433 124.377 46.7385 123.237C46.6294 123.082 46.4856 122.954 46.3184 122.865C46.1512 122.775 45.9653 122.725 45.7753 122.719C44.1354 122.719 42.4953 122.719 40.8554 122.719C40.3382 122.6 39.7948 122.684 39.3387 122.954C38.8826 123.224 38.5493 123.659 38.4084 124.168C37.9401 125.145 37.2493 126 36.3907 126.666C35.5322 127.331 34.5296 127.788 33.4625 128H30.8594C29.6143 127.694 28.4642 127.087 27.5107 126.234C26.5573 125.38 25.8299 124.306 25.3928 123.107C25.3928 122.9 24.8202 122.771 24.5078 122.745C23.1542 122.745 21.9047 122.745 20.4469 122.745C19.9733 122.796 19.4947 122.716 19.0632 122.516C18.6318 122.315 18.264 122 18 121.606L18.2082 113.425ZM64.2054 115.807C63.6587 115.807 63.2682 115.807 62.8778 115.807C61.3159 115.807 60.6912 115.159 60.6652 113.606C60.7172 112.649 60.7172 111.69 60.6652 110.732C60.5843 109.69 60.3655 108.663 60.0144 107.678C58.2703 103.639 56.4481 99.6522 54.6779 95.6136C54.582 95.3014 54.3773 95.0334 54.1006 94.8578C53.8238 94.6823 53.4933 94.6107 53.1682 94.6557C44.2655 94.6557 35.3889 94.6557 26.4862 94.6557H25.3148V113.684C25.3148 115.133 24.7161 115.729 23.2323 115.781C22.7898 115.781 22.3472 115.781 21.9047 115.781V119.301H24.664C24.9223 119.348 25.1887 119.293 25.4071 119.148C25.6255 119.003 25.779 118.78 25.8354 118.525C26.3629 117.239 27.2636 116.138 28.4227 115.364C29.5818 114.589 30.9467 114.175 32.3432 114.175C33.7397 114.175 35.1046 114.589 36.2637 115.364C37.4228 116.138 38.3235 117.239 38.851 118.525C38.9187 118.777 39.0797 118.995 39.3017 119.134C39.5237 119.273 39.7904 119.324 40.0484 119.276C41.8706 119.276 43.6928 119.276 45.515 119.276C45.8516 119.333 46.1976 119.264 46.4861 119.082C46.7746 118.901 46.9851 118.619 47.0769 118.292C47.5222 117.098 48.3091 116.06 49.3406 115.305C50.3721 114.551 51.6031 114.113 52.8818 114.046C54.2229 113.837 55.5962 114.064 56.797 114.694C57.9978 115.323 58.9619 116.322 59.5458 117.541C59.7449 118.184 60.1877 118.724 60.7804 119.048C61.3732 119.372 62.0694 119.453 62.7216 119.276C62.9819 119.276 63.3203 119.276 63.5546 119.276C63.7889 119.276 64.1012 118.913 64.1012 118.706C64.1012 117.774 64.1012 116.868 64.1012 115.781M28.8029 120.958C28.7773 121.641 28.9564 122.316 29.3174 122.897C29.6784 123.478 30.2051 123.939 30.8304 124.222C31.4557 124.504 32.1513 124.595 32.8289 124.484C33.5065 124.372 34.1353 124.062 34.6355 123.594C35.1356 123.126 35.4845 122.521 35.6376 121.855C35.7908 121.189 35.7413 120.493 35.4956 119.855C35.2498 119.217 34.8189 118.666 34.2576 118.273C33.6962 117.879 33.0299 117.661 32.3432 117.645C31.8902 117.624 31.4376 117.694 31.0123 117.85C30.5869 118.007 30.1976 118.247 29.8674 118.556C29.5371 118.865 29.2727 119.237 29.0899 119.65C28.907 120.062 28.8094 120.507 28.8029 120.958ZM53.5326 124.557C54.2202 124.552 54.8911 124.345 55.4607 123.961C56.0303 123.578 56.4733 123.036 56.7341 122.404C56.9949 121.771 57.0618 121.075 56.9264 120.405C56.7909 119.734 56.4592 119.119 55.973 118.635C55.4867 118.151 54.8676 117.821 54.1934 117.687C53.5191 117.552 52.82 117.619 52.1837 117.878C51.5474 118.137 51.0023 118.578 50.6171 119.144C50.2318 119.711 50.0235 120.378 50.0183 121.062C50.0077 121.524 50.0913 121.983 50.2641 122.412C50.437 122.841 50.6954 123.23 51.0239 123.557C51.3524 123.884 51.744 124.141 52.1752 124.312C52.6064 124.484 53.0681 124.568 53.5326 124.557Z" fill="#A25A9F"/>
<path d="M99.6071 41.8948C99.6071 42.3685 99.4178 42.8229 99.081 43.1579C98.7442 43.4929 98.2873 43.6811 97.8109 43.6811H48.5599C45.6946 43.6108 42.8944 44.5367 40.6421 46.2995C38.3897 48.0622 36.8262 50.5512 36.2211 53.3374C35.8462 55.1406 35.8797 57.0042 36.3193 58.7929C36.7589 60.5816 37.5935 62.2506 38.7626 63.6784C39.9316 65.1063 41.4057 66.2574 43.0779 67.048C44.75 67.8386 46.5782 68.2489 48.4297 68.2492H53.636C53.636 67.0583 53.636 65.9193 53.636 64.7543C53.636 64.5731 53.2976 64.3401 53.0633 64.2365C51.5053 63.3892 50.2312 62.1063 49.3984 60.5465C48.5657 58.9867 48.2108 57.2185 48.3777 55.4603C48.4534 53.854 48.8987 52.2863 49.6793 50.878C50.0964 49.9364 50.7431 49.1132 51.5608 48.4829C52.3785 47.8525 53.3413 47.4348 54.3622 47.2678C55.3831 47.1007 56.4297 47.1896 57.4074 47.5261C58.3851 47.8627 59.263 48.4364 59.9615 49.1953C61.6699 51.1069 62.5918 53.5881 62.5435 56.1451C62.4953 58.7021 61.4805 61.1473 59.7012 62.9938C59.2441 63.439 58.7165 63.8064 58.1394 64.0812C57.8347 64.1664 57.5738 64.3634 57.4095 64.6325C57.2452 64.9016 57.1897 65.2228 57.2543 65.531C57.2543 66.7477 57.2543 68.1198 57.2543 69.3883L71.3371 68.5858C71.3371 67.3172 71.3371 65.997 71.3371 64.8837C71.3122 64.7546 71.2566 64.6333 71.1752 64.5298C71.0937 64.4263 70.9886 64.3434 70.8686 64.2882C69.0498 63.3187 67.6072 61.7749 66.7683 59.8999C65.9293 58.025 65.7417 55.9255 66.2351 53.9328C66.5735 51.808 67.6738 49.8769 69.3328 48.4963C70.0819 47.8965 70.9612 47.4783 71.901 47.275C72.8408 47.0717 73.8152 47.0888 74.7472 47.325C75.6792 47.5611 76.5432 48.0098 77.2706 48.6355C77.998 49.2612 78.569 50.0467 78.9383 50.9298C79.9519 52.6259 80.4249 54.5878 80.2947 56.5566C80.1646 58.5254 79.4376 60.4088 78.2094 61.9583C77.4704 62.8161 76.5902 63.5427 75.6063 64.1071C75.3829 64.2589 75.2015 64.464 75.0787 64.7038C74.9558 64.9435 74.8955 65.2102 74.9034 65.4791C74.9034 66.3593 74.9034 67.2395 74.9034 68.2233H100.596C104.115 68.1344 107.617 68.7382 110.901 70C114.184 71.2618 117.185 73.1567 119.729 75.5757C122.883 78.5618 125.25 82.2735 126.621 86.3836C127.993 90.4938 128.326 94.8763 127.594 99.1451C126.861 103.414 125.083 107.438 122.418 110.863C119.753 114.287 116.282 117.007 112.31 118.784C108.928 120.172 105.321 120.944 101.664 121.062C93.4637 121.062 78.2354 121.062 73.1594 121.062C72.6899 121.062 72.2397 120.876 71.9077 120.546C71.5757 120.216 71.3893 119.768 71.3893 119.301C71.3892 118.832 71.5749 118.382 71.9061 118.047C72.2373 117.713 72.6875 117.522 73.1594 117.515C78.3656 117.515 93.9843 117.515 102.288 117.515C105.572 117.477 108.805 116.7 111.744 115.243C114.684 113.786 117.253 111.686 119.261 109.101C121.177 106.838 122.612 104.213 123.48 101.383C124.348 98.553 124.631 95.5775 124.311 92.6361C123.868 87.6622 121.786 82.9732 118.387 79.298C114.988 75.6228 110.463 73.1674 105.516 72.3137C103.935 72.0325 102.332 71.8937 100.726 71.8994H48.664C44.519 71.8739 40.5466 70.2453 37.5877 67.3584C34.6288 64.4714 32.9156 60.5526 32.8108 56.4316C32.7059 52.3105 34.2176 48.3107 37.0259 45.2786C39.8342 42.2464 43.7186 40.42 47.857 40.186H97.7589C97.9969 40.186 98.2326 40.2331 98.4522 40.3245C98.6719 40.4158 98.8711 40.5497 99.0382 40.7184C99.2053 40.887 99.3371 41.0871 99.4258 41.3068C99.5145 41.5265 99.5584 41.7615 99.5549 41.9983M51.8398 55.9004C51.8358 57.3692 52.3007 58.8015 53.1674 59.9908C53.4034 60.3541 53.7271 60.6528 54.1091 60.8597C54.4911 61.0665 54.9191 61.1749 55.354 61.1749C55.789 61.1749 56.217 61.0665 56.599 60.8597C56.9809 60.6528 57.3047 60.3541 57.5406 59.9908C58.4222 58.8023 58.8978 57.3642 58.8978 55.8874C58.8978 54.4106 58.4222 52.9726 57.5406 51.7842C57.2993 51.4527 56.9824 51.1828 56.6159 50.9967C56.2493 50.8105 55.8437 50.7135 55.4321 50.7135C55.0206 50.7135 54.6149 50.8105 54.2484 50.9967C53.8819 51.1828 53.5649 51.4527 53.3236 51.7842C52.3933 52.9581 51.8806 54.4057 51.8659 55.9004M76.5955 55.9004C76.636 55.1188 76.5212 54.337 76.2577 53.5996C75.9942 52.8622 75.5871 52.1837 75.0597 51.6029C74.8157 51.336 74.5183 51.1227 74.1865 50.9767C73.8548 50.8308 73.496 50.7554 73.1333 50.7554C72.7706 50.7554 72.4118 50.8308 72.0801 50.9767C71.7483 51.1227 71.451 51.336 71.207 51.6029C70.2027 52.8274 69.6543 54.3591 69.6543 55.9392C69.6543 57.5194 70.2027 59.0511 71.207 60.2755C71.4514 60.5553 71.7532 60.7797 72.0923 60.9335C72.4314 61.0872 72.7997 61.1669 73.1724 61.1669C73.545 61.1669 73.9133 61.0872 74.2524 60.9335C74.5914 60.7797 74.8934 60.5553 75.1378 60.2755C76.1935 59.0984 76.7365 57.5529 76.6475 55.9781" fill="#A25A9F"/>
<path d="M115.616 61.2852C115.383 61.2887 115.151 61.2455 114.935 61.1583C114.719 61.0711 114.522 60.9415 114.357 60.7773C114.192 60.6132 114.062 60.4176 113.974 60.2025C113.886 59.9873 113.843 59.7569 113.846 59.5248V43.9917C111.991 43.2374 110.183 42.3729 108.432 41.4028C106.452 40.0461 104.919 38.138 104.025 35.9181C103.131 33.6983 102.917 31.2654 103.408 28.9246C103.844 26.7593 104.856 24.7498 106.338 23.1055C107.82 21.4613 109.718 20.2424 111.835 19.5759C113.952 18.9094 116.21 18.8196 118.374 19.316C120.538 19.8123 122.528 20.8766 124.137 22.398C125.747 23.9193 126.917 25.842 127.525 27.9658C128.133 30.0896 128.158 32.3367 127.596 34.4731C127.034 36.6096 125.907 38.5571 124.331 40.1128C122.755 41.6686 120.788 42.7756 118.636 43.3186C117.621 43.5516 117.361 43.9399 117.361 44.9236C117.361 48.8328 117.361 56.1852 117.361 59.5507C117.364 59.7828 117.321 60.0132 117.233 60.2284C117.145 60.4436 117.015 60.6391 116.85 60.8032C116.685 60.9674 116.488 61.097 116.272 61.1842C116.056 61.2714 115.824 61.3146 115.59 61.3111M123.999 29.0281C123.594 27.585 122.82 26.271 121.752 25.2139C120.685 24.1567 119.36 23.3927 117.907 22.9962C116.027 22.4694 114.023 22.5782 112.211 23.3056C110.4 24.0329 108.882 25.3377 107.896 27.0153C106.91 28.693 106.512 30.6485 106.764 32.5754C107.016 34.5023 107.904 36.2915 109.288 37.6626C110.673 39.0336 112.476 39.9089 114.414 40.1512C116.353 40.3936 118.317 39.9892 120 39.0016C121.683 38.0139 122.988 36.4988 123.712 34.6939C124.435 32.8889 124.536 30.8962 123.999 29.0281Z" fill="#A25A9F"/>
<path d="M111.972 108.713C111.734 108.405 111.604 108.028 111.604 107.639C111.604 107.25 111.734 106.872 111.972 106.564L115.461 102.189C115.744 101.87 116.135 101.663 116.56 101.609C116.985 101.554 117.416 101.655 117.772 101.892C118.128 102.129 118.386 102.487 118.497 102.899C118.608 103.31 118.565 103.748 118.376 104.131C117.377 105.936 116.084 107.563 114.549 108.946C114.368 109.111 114.154 109.237 113.921 109.315C113.688 109.393 113.441 109.422 113.196 109.4C112.951 109.379 112.714 109.306 112.499 109.188C112.283 109.069 112.095 108.908 111.946 108.713" fill="#A25A9F"/>
<path d="M41.2721 75.8092C41.1836 76.0365 41.0499 76.2438 40.8791 76.4185C40.7082 76.5932 40.5035 76.7318 40.2775 76.826C40.0515 76.9203 39.8088 76.9684 39.5637 76.9671C39.3186 76.9659 39.0763 76.9154 38.8512 76.8189C37.3279 76.1314 35.8943 75.2621 34.5821 74.2301C34.3827 74.0859 34.2157 73.9019 34.0919 73.6898C33.9682 73.4778 33.8903 73.2422 33.8634 72.9985C33.8364 72.7548 33.861 72.5083 33.9354 72.2745C34.0099 72.0408 34.1326 71.825 34.2958 71.6412C34.5672 71.3297 34.94 71.1228 35.3491 71.0566C35.7582 70.9903 36.1777 71.0689 36.5344 71.2787L40.4912 73.6088C40.8476 73.8188 41.1199 74.1448 41.2622 74.5317C41.4045 74.9186 41.4081 75.3425 41.2721 75.7316" fill="#A25A9F"/>
<path d="M27.8128 50.6963C27.5737 50.6346 27.3499 50.5246 27.1555 50.373C26.9611 50.2214 26.8003 50.0315 26.683 49.8152C26.5658 49.599 26.4946 49.361 26.474 49.1162C26.4534 48.8713 26.4839 48.625 26.5634 48.3923C27.0737 46.9295 27.7367 45.5238 28.5417 44.1984C28.6711 43.9865 28.8429 43.803 29.0464 43.6598C29.2499 43.5165 29.4808 43.4163 29.7248 43.3654C29.9688 43.3144 30.2207 43.3137 30.465 43.3635C30.7092 43.4133 30.9406 43.5124 31.1448 43.6547C31.4802 43.8939 31.7211 44.2422 31.8256 44.6393C31.9302 45.0364 31.892 45.4574 31.7175 45.8294L29.8693 49.7127C29.698 50.0902 29.3965 50.3944 29.0193 50.57C28.6421 50.7457 28.2142 50.7814 27.8128 50.6705" fill="#A25A9F"/>
<path d="M109.839 81.2451L105.934 79.5104C105.57 79.3399 105.273 79.0544 105.09 78.6986C104.906 78.3427 104.846 77.9364 104.919 77.543C104.969 77.2989 105.071 77.068 105.216 76.8652C105.362 76.6623 105.549 76.492 105.764 76.3652C105.98 76.2384 106.22 76.1578 106.469 76.1288C106.718 76.0998 106.97 76.123 107.21 76.1968C108.71 76.6481 110.145 77.2921 111.479 78.1125C111.693 78.2406 111.878 78.4118 112.021 78.615C112.165 78.8182 112.265 79.049 112.314 79.2927C112.363 79.5363 112.36 79.7874 112.306 80.0299C112.252 80.2725 112.147 80.5012 111.999 80.7013C111.753 81.0207 111.406 81.248 111.014 81.3467C110.622 81.4453 110.208 81.4096 109.839 81.2451Z" fill="#A25A9F"/>
<path d="M44.7859 35.2156C44.8544 35.6248 44.7776 36.045 44.5686 36.404C44.3596 36.763 44.0315 37.0385 43.6405 37.1832L39.866 38.5294C39.4713 38.6714 39.0392 38.6713 38.6445 38.5294C38.2498 38.3876 37.9176 38.1127 37.7054 37.7527C37.567 37.5363 37.4771 37.2929 37.4418 37.0389C37.4064 36.7849 37.4265 36.5262 37.5006 36.2806C37.5746 36.035 37.701 35.8081 37.8711 35.6154C38.0413 35.4227 38.251 35.2687 38.4863 35.1638C39.7971 34.5195 41.1768 34.0246 42.5993 33.6883C42.8392 33.6318 43.0882 33.6249 43.3308 33.6682C43.5734 33.7116 43.8045 33.8042 44.0096 33.9402C44.2147 34.0762 44.3895 34.2527 44.5231 34.4588C44.6566 34.6648 44.7461 34.8961 44.7859 35.138" fill="#A25A9F"/>
<path d="M27.2162 57.6874C27.6378 57.6539 28.058 57.7674 28.4047 58.0083C28.7514 58.2492 29.003 58.6025 29.1164 59.0077L30.0536 62.6581C30.1296 63.0875 30.045 63.5298 29.8158 63.9015C29.5865 64.2732 29.2285 64.5485 28.8092 64.6759C28.3898 64.8032 27.9381 64.7737 27.5392 64.5928C27.1403 64.4118 26.8217 64.0919 26.6435 63.6935C26.1541 62.4321 25.805 61.1213 25.6023 59.7843C25.5619 59.5402 25.5722 59.2905 25.6326 59.0505C25.6929 58.8105 25.8021 58.5852 25.9533 58.3888C26.1046 58.1923 26.2946 58.0288 26.5118 57.9081C26.729 57.7875 26.9687 57.7124 27.2162 57.6874Z" fill="#A25A9F"/>
<path d="M76.6475 77.0773C76.6474 76.6217 76.8276 76.1845 77.1491 75.8599C77.4705 75.5354 77.9075 75.3496 78.3655 75.3428H81.9578C82.3804 75.3944 82.7693 75.598 83.0514 75.9151C83.3335 76.2322 83.4892 76.6409 83.4892 77.0643C83.4892 77.4877 83.3335 77.8966 83.0514 78.2137C82.7693 78.5308 82.3804 78.7344 81.9578 78.786H78.3655C77.912 78.7793 77.4789 78.5971 77.1581 78.2781C76.8374 77.9591 76.6542 77.5283 76.6475 77.0773Z" fill="#A25A9F"/>
<path d="M67.7967 78.8373H64.2305C63.7679 78.8373 63.3242 78.6544 62.9971 78.3291C62.6701 78.0038 62.4863 77.5627 62.4863 77.1026C62.4863 76.6426 62.6701 76.2015 62.9971 75.8762C63.3242 75.5509 63.7679 75.3682 64.2305 75.3682H67.7967C68.2593 75.3682 68.7029 75.5509 69.03 75.8762C69.357 76.2015 69.5408 76.6426 69.5408 77.1026C69.5408 77.5627 69.357 78.0038 69.03 78.3291C68.7029 78.6544 68.2593 78.8373 67.7967 78.8373Z" fill="#A25A9F"/>
<path d="M83.7051 112.286C83.7051 111.826 83.8889 111.385 84.216 111.06C84.543 110.734 84.9866 110.552 85.4492 110.552H89.0155C89.478 110.552 89.9216 110.734 90.2487 111.06C90.5758 111.385 90.7596 111.826 90.7596 112.286C90.7596 112.513 90.7143 112.737 90.6264 112.946C90.5384 113.155 90.4095 113.345 90.2472 113.504C90.0849 113.663 89.8924 113.788 89.6809 113.872C89.4695 113.957 89.2433 113.998 89.0155 113.995H85.4492C85.2214 113.998 84.9952 113.957 84.7837 113.872C84.5723 113.788 84.3798 113.663 84.2175 113.504C84.0552 113.345 83.9263 113.155 83.8383 112.946C83.7503 112.737 83.7051 112.513 83.7051 112.286Z" fill="#A25A9F"/>
<path d="M92.5806 75.3428H96.0949C96.5574 75.3428 97.001 75.5255 97.3281 75.8508C97.6552 76.1761 97.839 76.6172 97.839 77.0773C97.839 77.5373 97.6552 77.9786 97.3281 78.3039C97.001 78.6292 96.5574 78.8119 96.0949 78.8119H92.5547C92.0921 78.8119 91.6484 78.6292 91.3214 78.3039C90.9943 77.9786 90.8105 77.5373 90.8105 77.0773C90.8105 76.6172 90.9943 76.1761 91.3214 75.8508C91.6484 75.5255 92.0921 75.3428 92.5547 75.3428" fill="#A25A9F"/>
<path d="M48.3008 77.078C48.3008 76.8502 48.3459 76.6248 48.4335 76.4143C48.5212 76.2039 48.6496 76.0126 48.8116 75.8515C48.9735 75.6904 49.1658 75.5628 49.3774 75.4756C49.589 75.3884 49.8158 75.3435 50.0448 75.3435H53.6111C53.8562 75.3135 54.105 75.3358 54.3409 75.4086C54.5768 75.4814 54.7944 75.6033 54.9794 75.766C55.1644 75.9288 55.3126 76.1288 55.414 76.3527C55.5154 76.5767 55.5679 76.8194 55.5679 77.065C55.5679 77.3107 55.5154 77.5535 55.414 77.7775C55.3126 78.0015 55.1644 78.2014 54.9794 78.3642C54.7944 78.5269 54.5768 78.6488 54.3409 78.7216C54.105 78.7944 53.8562 78.8167 53.6111 78.7867H50.0448C49.5867 78.7868 49.1471 78.6076 48.8207 78.2879C48.4944 77.9682 48.3076 77.5335 48.3008 77.078Z" fill="#A25A9F"/>
<path d="M117.518 87.6651C117.751 87.5667 118.002 87.5177 118.255 87.5212C118.508 87.5246 118.757 87.5804 118.988 87.6852C119.218 87.7899 119.424 87.9411 119.592 88.1294C119.76 88.3176 119.887 88.5386 119.964 88.7783C120.369 90.025 120.647 91.3084 120.797 92.6097C120.823 92.8616 120.795 93.116 120.717 93.3568C120.639 93.5977 120.511 93.8198 120.343 94.0094C120.174 94.199 119.968 94.3518 119.737 94.4585C119.506 94.5651 119.256 94.6232 119.001 94.6291C118.591 94.6258 118.194 94.4826 117.876 94.2235C117.559 93.9644 117.34 93.6051 117.257 93.2053L116.528 89.6586C116.444 89.261 116.499 88.8468 116.684 88.4844C116.868 88.122 117.172 87.8331 117.543 87.6651" fill="#A25A9F"/>
<path d="M97.916 112.105C97.916 111.656 98.0934 111.225 98.41 110.906C98.7266 110.586 99.1569 110.403 99.608 110.396H103.252C103.668 110.447 104.051 110.648 104.329 110.96C104.606 111.273 104.759 111.675 104.759 112.092C104.759 112.509 104.606 112.911 104.329 113.223C104.051 113.536 103.668 113.736 103.252 113.788H99.608C99.1593 113.788 98.7289 113.61 98.4116 113.295C98.0943 112.979 97.916 112.551 97.916 112.105Z" fill="#A25A9F"/>
<path d="M58.8961 34.8526C58.8894 35.3037 58.7062 35.7345 58.3855 36.0535C58.0647 36.3725 57.6316 36.5547 57.178 36.5614H53.6378C53.2153 36.5097 52.8263 36.3062 52.5442 35.9891C52.2622 35.6719 52.1064 35.2631 52.1064 34.8397C52.1064 34.4163 52.2622 34.0076 52.5442 33.6905C52.8263 33.3734 53.2153 33.1698 53.6378 33.1182H57.178C57.6361 33.125 58.073 33.3108 58.3945 33.6353C58.716 33.9599 58.8962 34.3971 58.8961 34.8526Z" fill="#A25A9F"/>
<path d="M66.0549 34.8526C66.0514 34.6261 66.0934 34.4012 66.1782 34.1909C66.263 33.9806 66.389 33.7892 66.5488 33.6277C66.7087 33.4663 66.8993 33.3382 67.1095 33.2507C67.3196 33.1633 67.5451 33.1181 67.773 33.1182H71.2872C71.7097 33.1698 72.0987 33.3734 72.3808 33.6905C72.6628 34.0076 72.8186 34.4163 72.8186 34.8397C72.8186 35.2631 72.6628 35.6719 72.3808 35.9891C72.0987 36.3062 71.7097 36.5097 71.2872 36.5614H67.773C67.5473 36.5614 67.3239 36.5172 67.1155 36.4313C66.9071 36.3455 66.7177 36.2196 66.5581 36.061C66.3986 35.9023 66.2721 35.7138 66.1857 35.5065C66.0994 35.2992 66.0549 35.077 66.0549 34.8526Z" fill="#A25A9F"/>
<path d="M87.2155 34.8526C87.2088 35.3037 87.0256 35.7345 86.7049 36.0535C86.3841 36.3725 85.951 36.5547 85.4974 36.5614H81.9572C81.5347 36.5097 81.1457 36.3062 80.8636 35.9891C80.5815 35.6719 80.4258 35.2631 80.4258 34.8397C80.4258 34.4163 80.5815 34.0076 80.8636 33.6905C81.1457 33.3734 81.5347 33.1698 81.9572 33.1182H85.4974C85.9555 33.125 86.3925 33.3108 86.7139 33.6353C87.0354 33.9599 87.2156 34.3971 87.2155 34.8526Z" fill="#A25A9F"/>
<path d="M94.3498 34.8534C94.3464 34.6268 94.3883 34.4019 94.4731 34.1916C94.5579 33.9813 94.6839 33.7899 94.8438 33.6285C95.0037 33.4671 95.1942 33.3389 95.4044 33.2515C95.6145 33.164 95.84 33.1189 96.0679 33.1189H97.864C98.1092 33.0889 98.358 33.1112 98.5939 33.184C98.8297 33.2568 99.0473 33.3787 99.2323 33.5414C99.4173 33.7042 99.5655 33.9041 99.6669 34.1281C99.7684 34.3521 99.8208 34.5948 99.8208 34.8404C99.8208 35.0861 99.7684 35.3289 99.6669 35.5529C99.5655 35.7768 99.4173 35.9768 99.2323 36.1396C99.0473 36.3023 98.8297 36.4242 98.5939 36.497C98.358 36.5698 98.1092 36.5921 97.864 36.5621H96.0939C95.6383 36.5621 95.2012 36.3821 94.879 36.0617C94.5568 35.7413 94.3759 35.3065 94.3759 34.8534" fill="#A25A9F"/>
<path d="M76.6233 112.286C76.6164 112.741 76.4297 113.176 76.1033 113.495C75.777 113.815 75.3373 113.994 74.8792 113.994H73.1091C72.864 114.024 72.6152 114.002 72.3793 113.929C72.1434 113.856 71.9258 113.734 71.7408 113.572C71.5558 113.409 71.4077 113.209 71.3062 112.985C71.2048 112.761 71.1523 112.518 71.1523 112.273C71.1523 112.027 71.2048 111.784 71.3062 111.56C71.4077 111.336 71.5558 111.136 71.7408 110.973C71.9258 110.811 72.1434 110.689 72.3793 110.616C72.6152 110.543 72.864 110.521 73.1091 110.551H74.8792C75.3418 110.551 75.7854 110.734 76.1125 111.059C76.4396 111.384 76.6233 111.826 76.6233 112.286Z" fill="#A25A9F"/>
<path d="M50.0466 110.474H45.4391C43.6169 110.474 42.8359 109.827 42.8359 108.066C42.8359 105.477 42.8359 102.888 42.8359 100.507C42.8359 98.6945 43.4607 98.0732 45.2829 98.0732H51.1659C51.6863 98.0252 52.2076 98.1556 52.6432 98.4428C53.0789 98.7301 53.4026 99.1569 53.5608 99.6524C54.576 102.241 55.6693 104.83 56.7105 107.419C57.4134 109.231 56.7105 110.318 54.7321 110.37H49.9164M46.6365 101.723V106.901H52.7017C52.0509 105.218 51.4001 103.613 50.7494 102.008C50.6861 101.912 50.6016 101.832 50.5023 101.774C50.403 101.715 50.2916 101.68 50.1767 101.672H46.6365" fill="#A25A9F"/>
<path d="M39.4495 104.39V108.532C39.4495 109.775 38.9029 110.474 37.7055 110.526C35.3106 110.526 32.9157 110.526 30.5469 110.526C30.3004 110.531 30.0557 110.484 29.8292 110.387C29.6028 110.29 29.4 110.146 29.2345 109.964C29.0691 109.783 28.9449 109.568 28.8704 109.334C28.7959 109.1 28.7728 108.853 28.8028 108.61C28.8028 105.788 28.8028 102.94 28.8028 100.093C28.7815 99.8324 28.8188 99.5707 28.9119 99.3265C29.005 99.0823 29.1515 98.8616 29.3409 98.6807C29.5303 98.4998 29.7577 98.3631 30.0068 98.2804C30.256 98.1978 30.5205 98.1713 30.7812 98.2029C33.0198 98.2029 35.2845 98.2029 37.5232 98.2029C38.8508 98.2029 39.4235 98.9018 39.4495 100.248V104.39ZM35.8052 101.801H32.4211V106.979H35.8052V101.801Z" fill="#A25A9F"/>
<path d="M120.743 32.394C120.552 33.3812 120.069 34.2888 119.354 34.9996C118.639 35.7104 117.727 36.1915 116.734 36.3808C116.608 36.4164 116.475 36.4227 116.346 36.3994C116.217 36.3761 116.095 36.3238 115.989 36.2463C115.884 36.1688 115.797 36.0682 115.737 35.9524C115.677 35.8366 115.644 35.7087 115.641 35.5782V34.3097C115.642 33.7393 115.866 33.1916 116.265 32.7822L117.098 31.9797C117.293 31.7778 117.528 31.6183 117.788 31.5113C118.047 31.4044 118.327 31.3523 118.608 31.3584H119.91C120.037 31.3593 120.163 31.3886 120.278 31.444C120.393 31.4995 120.494 31.5798 120.574 31.679C120.654 31.7782 120.71 31.8938 120.74 32.0175C120.769 32.1411 120.77 32.2698 120.743 32.394Z" fill="#A25A9F"/>
</svg>
